<?xml version="1.0" encoding="UTF-8"?>
<svg width="752pt" height="752pt" version="1.1" viewBox="0 0 752 752" xmlns="http://www.w3.org/2000/svg">
 <g>
  <path d="m565.43 555.96c-92.855 0-132.4-189.4-132.79-191.31l-2.8086-13.832-11.734 7.8359c-13.23 8.8438-25.82 12.613-42.098 12.613-16.605 0-29.168-3.75-42.008-12.547l-11.793-8.0781-2.8477 14.008c-0.37891 1.9102-39.926 191.31-132.78 191.31h-25.609l58.359 50.02 20.762-15.57 44.621 17.848 47.273-5.2539 25.758-17.172 35.617 17.812 37.973-5.4258 19.855-11.914 15.078 11.309 33.598 11.195 18.941-9.4727 15.574 5.1953 56.668-48.57z"/>
  <path d="m383.11 281.29c0 3.9219-3.1797 7.1055-7.1055 7.1055-3.9219 0-7.1016-3.1836-7.1016-7.1055s3.1797-7.1055 7.1016-7.1055c3.9258 0 7.1055 3.1836 7.1055 7.1055"/>
  <path d="m383.11 233.93c0 3.9258-3.1797 7.1055-7.1055 7.1055-3.9219 0-7.1016-3.1797-7.1016-7.1055 0-3.9219 3.1797-7.1016 7.1016-7.1016 3.9258 0 7.1055 3.1797 7.1055 7.1016"/>
  <path d="m380.74 257.61c0 6.3164-9.4727 6.3164-9.4727 0 0-6.3125 9.4727-6.3125 9.4727 0"/>
  <path d="m335.75 281.29c0 3.9219-3.1797 7.1055-7.1016 7.1055-3.9258 0-7.1055-3.1836-7.1055-7.1055s3.1797-7.1055 7.1055-7.1055c3.9219 0 7.1016 3.1836 7.1016 7.1055"/>
  <path d="m357.06 281.29c0 6.3164-9.4727 6.3164-9.4727 0 0-6.3125 9.4727-6.3125 9.4727 0"/>
  <path d="m361.79 257.61c0 5.2305-4.2383 9.4727-9.4688 9.4727-5.2344 0-9.4727-4.2422-9.4727-9.4727s4.2383-9.4727 9.4727-9.4727c5.2305 0 9.4688 4.2422 9.4688 9.4727"/>
  <path d="m368.9 245.77c0 6.3164-9.4727 6.3164-9.4727 0 0-6.3125 9.4727-6.3125 9.4727 0"/>
  <path d="m345.22 245.77c0 6.3164-9.4727 6.3164-9.4727 0 0-6.3125 9.4727-6.3125 9.4727 0"/>
  <path d="m368.9 271.81c0 6.3164-9.4727 6.3164-9.4727 0 0-6.3125 9.4727-6.3125 9.4727 0"/>
  <path d="m345.22 271.81c0 6.3164-9.4727 6.3164-9.4727 0 0-6.3125 9.4727-6.3125 9.4727 0"/>
  <path d="m335.75 233.93c0 3.9258-3.1797 7.1055-7.1016 7.1055-3.9258 0-7.1055-3.1797-7.1055-7.1055 0-3.9219 3.1797-7.1016 7.1055-7.1016 3.9219 0 7.1016 3.1797 7.1016 7.1016"/>
  <path d="m357.06 233.93c0 6.3164-9.4727 6.3164-9.4727 0 0-6.3125 9.4727-6.3125 9.4727 0"/>
  <path d="m333.38 257.61c0 6.3164-9.4727 6.3164-9.4727 0 0-6.3125 9.4727-6.3125 9.4727 0"/>
  <path d="m288.39 281.29c0 3.9219-3.1836 7.1055-7.1055 7.1055s-7.1055-3.1836-7.1055-7.1055 3.1836-7.1055 7.1055-7.1055 7.1055 3.1836 7.1055 7.1055"/>
  <path d="m309.7 281.29c0 6.3164-9.4727 6.3164-9.4727 0 0-6.3125 9.4727-6.3125 9.4727 0"/>
  <path d="m314.44 257.61c0 5.2305-4.2422 9.4727-9.4727 9.4727-5.2305 0-9.4727-4.2422-9.4727-9.4727s4.2422-9.4727 9.4727-9.4727c5.2305 0 9.4727 4.2422 9.4727 9.4727"/>
  <path d="m321.54 245.77c0 6.3164-9.4727 6.3164-9.4727 0 0-6.3125 9.4727-6.3125 9.4727 0"/>
  <path d="m297.86 245.77c0 6.3164-9.4688 6.3164-9.4688 0 0-6.3125 9.4688-6.3125 9.4688 0"/>
  <path d="m321.54 271.81c0 6.3164-9.4727 6.3164-9.4727 0 0-6.3125 9.4727-6.3125 9.4727 0"/>
  <path d="m297.86 271.81c0 6.3164-9.4688 6.3164-9.4688 0 0-6.3125 9.4688-6.3125 9.4688 0"/>
  <path d="m288.39 233.93c0 3.9258-3.1836 7.1055-7.1055 7.1055s-7.1055-3.1797-7.1055-7.1055c0-3.9219 3.1836-7.1016 7.1055-7.1016s7.1055 3.1797 7.1055 7.1016"/>
  <path d="m309.7 233.93c0 6.3164-9.4727 6.3164-9.4727 0 0-6.3125 9.4727-6.3125 9.4727 0"/>
  <path d="m286.02 257.61c0 6.3164-9.4688 6.3164-9.4688 0 0-6.3125 9.4688-6.3125 9.4688 0"/>
  <path d="m241.03 281.29c0 3.9219-3.1797 7.1055-7.1055 7.1055-3.9219 0-7.1016-3.1836-7.1016-7.1055s3.1797-7.1055 7.1016-7.1055c3.9258 0 7.1055 3.1836 7.1055 7.1055"/>
  <path d="m262.34 281.29c0 6.3164-9.4727 6.3164-9.4727 0 0-6.3125 9.4727-6.3125 9.4727 0"/>
  <path d="m267.08 257.61c0 5.2305-4.2422 9.4727-9.4727 9.4727s-9.4727-4.2422-9.4727-9.4727 4.2422-9.4727 9.4727-9.4727 9.4727 4.2422 9.4727 9.4727"/>
  <path d="m274.18 245.77c0 6.3164-9.4688 6.3164-9.4688 0 0-6.3125 9.4688-6.3125 9.4688 0"/>
  <path d="m250.5 245.77c0 6.3164-9.4727 6.3164-9.4727 0 0-6.3125 9.4727-6.3125 9.4727 0"/>
  <path d="m274.18 271.81c0 6.3164-9.4688 6.3164-9.4688 0 0-6.3125 9.4688-6.3125 9.4688 0"/>
  <path d="m250.5 271.81c0 6.3164-9.4727 6.3164-9.4727 0 0-6.3125 9.4727-6.3125 9.4727 0"/>
  <path d="m241.03 233.93c0 3.9258-3.1797 7.1055-7.1055 7.1055-3.9219 0-7.1016-3.1797-7.1016-7.1055 0-3.9219 3.1797-7.1016 7.1016-7.1016 3.9258 0 7.1055 3.1797 7.1055 7.1016"/>
  <path d="m262.34 233.93c0 6.3164-9.4727 6.3164-9.4727 0 0-6.3125 9.4727-6.3125 9.4727 0"/>
  <path d="m238.66 257.61c0 6.3164-9.4727 6.3164-9.4727 0 0-6.3125 9.4727-6.3125 9.4727 0"/>
  <path d="m383.11 328.64c0 3.9219-3.1797 7.1016-7.1055 7.1016-3.9219 0-7.1016-3.1797-7.1016-7.1016 0-3.9258 3.1797-7.1055 7.1016-7.1055 3.9258 0 7.1055 3.1797 7.1055 7.1055"/>
  <path d="m383.11 357.06c0 3.9219-3.1797 7.1016-7.1055 7.1016-3.9219 0-7.1016-3.1797-7.1016-7.1016s3.1797-7.1055 7.1016-7.1055c3.9258 0 7.1055 3.1836 7.1055 7.1055"/>
  <path d="m380.74 304.96c0 6.3125-9.4727 6.3125-9.4727 0 0-6.3164 9.4727-6.3164 9.4727 0"/>
  <path d="m335.75 328.64c0 3.9219-3.1797 7.1016-7.1016 7.1016-3.9258 0-7.1055-3.1797-7.1055-7.1016 0-3.9258 3.1797-7.1055 7.1055-7.1055 3.9219 0 7.1016 3.1797 7.1016 7.1055"/>
  <path d="m357.06 328.64c0 6.3125-9.4727 6.3125-9.4727 0 0-6.3164 9.4727-6.3164 9.4727 0"/>
  <path d="m357.06 352.32c0 6.3125-9.4727 6.3125-9.4727 0 0-6.3164 9.4727-6.3164 9.4727 0"/>
  <path d="m361.79 304.96c0 5.2305-4.2383 9.4727-9.4688 9.4727-5.2344 0-9.4727-4.2422-9.4727-9.4727 0-5.2305 4.2383-9.4727 9.4727-9.4727 5.2305 0 9.4688 4.2422 9.4688 9.4727"/>
  <path d="m368.9 293.12c0 6.3125-9.4727 6.3125-9.4727 0 0-6.3164 9.4727-6.3164 9.4727 0"/>
  <path d="m345.22 293.12c0 6.3125-9.4727 6.3125-9.4727 0 0-6.3164 9.4727-6.3164 9.4727 0"/>
  <path d="m368.9 342.85c0 6.3125-9.4727 6.3125-9.4727 0 0-6.3164 9.4727-6.3164 9.4727 0"/>
  <path d="m345.22 342.85c0 6.3125-9.4727 6.3125-9.4727 0 0-6.3164 9.4727-6.3164 9.4727 0"/>
  <path d="m368.9 319.17c0 6.3125-9.4727 6.3125-9.4727 0 0-6.3164 9.4727-6.3164 9.4727 0"/>
  <path d="m345.22 319.17c0 6.3125-9.4727 6.3125-9.4727 0 0-6.3164 9.4727-6.3164 9.4727 0"/>
  <path d="m333.38 304.96c0 6.3125-9.4727 6.3125-9.4727 0 0-6.3164 9.4727-6.3164 9.4727 0"/>
  <path d="m288.39 328.64c0 3.9219-3.1836 7.1016-7.1055 7.1016s-7.1055-3.1797-7.1055-7.1016c0-3.9258 3.1836-7.1055 7.1055-7.1055s7.1055 3.1797 7.1055 7.1055"/>
  <path d="m314.44 304.96c0 5.2305-4.2422 9.4727-9.4727 9.4727-5.2305 0-9.4727-4.2422-9.4727-9.4727 0-5.2305 4.2422-9.4727 9.4727-9.4727 5.2305 0 9.4727 4.2422 9.4727 9.4727"/>
  <path d="m321.54 293.12c0 6.3125-9.4727 6.3125-9.4727 0 0-6.3164 9.4727-6.3164 9.4727 0"/>
  <path d="m297.86 293.12c0 6.3125-9.4688 6.3125-9.4688 0 0-6.3164 9.4688-6.3164 9.4688 0"/>
  <path d="m321.54 319.17c0 6.3125-9.4727 6.3125-9.4727 0 0-6.3164 9.4727-6.3164 9.4727 0"/>
  <path d="m297.86 319.17c0 6.3125-9.4688 6.3125-9.4688 0 0-6.3164 9.4688-6.3164 9.4688 0"/>
  <path d="m286.02 304.96c0 6.3125-9.4688 6.3125-9.4688 0 0-6.3164 9.4688-6.3164 9.4688 0"/>
  <path d="m262.34 328.64c0 6.3125-9.4727 6.3125-9.4727 0 0-6.3164 9.4727-6.3164 9.4727 0"/>
  <path d="m267.08 304.96c0 5.2305-4.2422 9.4727-9.4727 9.4727s-9.4727-4.2422-9.4727-9.4727c0-5.2305 4.2422-9.4727 9.4727-9.4727s9.4727 4.2422 9.4727 9.4727"/>
  <path d="m274.18 293.12c0 6.3125-9.4688 6.3125-9.4688 0 0-6.3164 9.4688-6.3164 9.4688 0"/>
  <path d="m250.5 293.12c0 6.3125-9.4727 6.3125-9.4727 0 0-6.3164 9.4727-6.3164 9.4727 0"/>
  <path d="m274.18 319.17c0 6.3125-9.4688 6.3125-9.4688 0 0-6.3164 9.4688-6.3164 9.4688 0"/>
  <path d="m250.5 319.17c0 6.3125-9.4727 6.3125-9.4727 0 0-6.3164 9.4727-6.3164 9.4727 0"/>
  <path d="m238.66 304.96c0 6.3125-9.4727 6.3125-9.4727 0 0-6.3164 9.4727-6.3164 9.4727 0"/>
  <path d="m383.11 186.57c0 3.9219-3.1797 7.1016-7.1055 7.1016-3.9219 0-7.1016-3.1797-7.1016-7.1016 0-3.9258 3.1797-7.1055 7.1016-7.1055 3.9258 0 7.1055 3.1797 7.1055 7.1055"/>
  <path d="m380.74 210.25c0 6.3125-9.4727 6.3125-9.4727 0 0-6.3164 9.4727-6.3164 9.4727 0"/>
  <path d="m361.79 210.25c0 5.2305-4.2383 9.4688-9.4688 9.4688-5.2344 0-9.4727-4.2383-9.4727-9.4688 0-5.2344 4.2383-9.4727 9.4727-9.4727 5.2305 0 9.4688 4.2383 9.4688 9.4727"/>
  <path d="m368.9 198.41c0 6.3125-9.4727 6.3125-9.4727 0 0-6.3164 9.4727-6.3164 9.4727 0"/>
  <path d="m345.22 198.41c0 6.3125-9.4727 6.3125-9.4727 0 0-6.3164 9.4727-6.3164 9.4727 0"/>
  <path d="m368.9 224.46c0 6.3125-9.4727 6.3125-9.4727 0 0-6.3164 9.4727-6.3164 9.4727 0"/>
  <path d="m345.22 224.46c0 6.3125-9.4727 6.3125-9.4727 0 0-6.3164 9.4727-6.3164 9.4727 0"/>
  <path d="m335.75 186.57c0 3.9219-3.1797 7.1016-7.1016 7.1016-3.9258 0-7.1055-3.1797-7.1055-7.1016 0-3.9258 3.1797-7.1055 7.1055-7.1055 3.9219 0 7.1016 3.1797 7.1016 7.1055"/>
  <path d="m357.06 186.57c0 6.3125-9.4727 6.3125-9.4727 0 0-6.3164 9.4727-6.3164 9.4727 0"/>
  <path d="m333.38 210.25c0 6.3125-9.4727 6.3125-9.4727 0 0-6.3164 9.4727-6.3164 9.4727 0"/>
  <path d="m314.44 210.25c0 5.2305-4.2422 9.4688-9.4727 9.4688-5.2305 0-9.4727-4.2383-9.4727-9.4688 0-5.2344 4.2422-9.4727 9.4727-9.4727 5.2305 0 9.4727 4.2383 9.4727 9.4727"/>
  <path d="m321.54 198.41c0 6.3125-9.4727 6.3125-9.4727 0 0-6.3164 9.4727-6.3164 9.4727 0"/>
  <path d="m297.86 198.41c0 6.3125-9.4688 6.3125-9.4688 0 0-6.3164 9.4688-6.3164 9.4688 0"/>
  <path d="m321.54 224.46c0 6.3125-9.4727 6.3125-9.4727 0 0-6.3164 9.4727-6.3164 9.4727 0"/>
  <path d="m297.86 224.46c0 6.3125-9.4688 6.3125-9.4688 0 0-6.3164 9.4688-6.3164 9.4688 0"/>
  <path d="m288.39 186.57c0 3.9219-3.1836 7.1016-7.1055 7.1016s-7.1055-3.1797-7.1055-7.1016c0-3.9258 3.1836-7.1055 7.1055-7.1055s7.1055 3.1797 7.1055 7.1055"/>
  <path d="m309.7 186.57c0 6.3125-9.4727 6.3125-9.4727 0 0-6.3164 9.4727-6.3164 9.4727 0"/>
  <path d="m286.02 210.25c0 6.3125-9.4688 6.3125-9.4688 0 0-6.3164 9.4688-6.3164 9.4688 0"/>
  <path d="m267.08 210.25c0 5.2305-4.2422 9.4688-9.4727 9.4688s-9.4727-4.2383-9.4727-9.4688c0-5.2344 4.2422-9.4727 9.4727-9.4727s9.4727 4.2383 9.4727 9.4727"/>
  <path d="m274.18 198.41c0 6.3125-9.4688 6.3125-9.4688 0 0-6.3164 9.4688-6.3164 9.4688 0"/>
  <path d="m250.5 198.41c0 6.3125-9.4727 6.3125-9.4727 0 0-6.3164 9.4727-6.3164 9.4727 0"/>
  <path d="m274.18 224.46c0 6.3125-9.4688 6.3125-9.4688 0 0-6.3164 9.4688-6.3164 9.4688 0"/>
  <path d="m250.5 224.46c0 6.3125-9.4727 6.3125-9.4727 0 0-6.3164 9.4727-6.3164 9.4727 0"/>
  <path d="m241.03 186.57c0 3.9219-3.1797 7.1016-7.1055 7.1016-3.9219 0-7.1016-3.1797-7.1016-7.1016 0-3.9258 3.1797-7.1055 7.1016-7.1055 3.9258 0 7.1055 3.1797 7.1055 7.1055"/>
  <path d="m262.34 186.57c0 6.3125-9.4727 6.3125-9.4727 0 0-6.3164 9.4727-6.3164 9.4727 0"/>
  <path d="m238.66 210.25c0 6.3125-9.4727 6.3125-9.4727 0 0-6.3164 9.4727-6.3164 9.4727 0"/>
  <path d="m380.74 162.89c0 6.3125-9.4727 6.3125-9.4727 0 0-6.3164 9.4727-6.3164 9.4727 0"/>
  <path d="m361.79 162.89c0 5.2305-4.2383 9.4727-9.4688 9.4727-5.2344 0-9.4727-4.2422-9.4727-9.4727s4.2383-9.4727 9.4727-9.4727c5.2305 0 9.4688 4.2422 9.4688 9.4727"/>
  <path d="m368.9 151.05c0 6.3125-9.4727 6.3125-9.4727 0 0-6.3164 9.4727-6.3164 9.4727 0"/>
  <path d="m368.9 177.1c0 6.3125-9.4727 6.3125-9.4727 0 0-6.3164 9.4727-6.3164 9.4727 0"/>
  <path d="m345.22 177.1c0 6.3125-9.4727 6.3125-9.4727 0 0-6.3164 9.4727-6.3164 9.4727 0"/>
  <path d="m333.38 162.89c0 6.3125-9.4727 6.3125-9.4727 0 0-6.3164 9.4727-6.3164 9.4727 0"/>
  <path d="m314.44 162.89c0 5.2305-4.2422 9.4727-9.4727 9.4727-5.2305 0-9.4727-4.2422-9.4727-9.4727s4.2422-9.4727 9.4727-9.4727c5.2305 0 9.4727 4.2422 9.4727 9.4727"/>
  <path d="m321.54 151.05c0 6.3125-9.4727 6.3125-9.4727 0 0-6.3164 9.4727-6.3164 9.4727 0"/>
  <path d="m297.86 151.05c0 6.3125-9.4688 6.3125-9.4688 0 0-6.3164 9.4688-6.3164 9.4688 0"/>
  <path d="m321.54 177.1c0 6.3125-9.4727 6.3125-9.4727 0 0-6.3164 9.4727-6.3164 9.4727 0"/>
  <path d="m297.86 177.1c0 6.3125-9.4688 6.3125-9.4688 0 0-6.3164 9.4688-6.3164 9.4688 0"/>
  <path d="m286.02 162.89c0 6.3125-9.4688 6.3125-9.4688 0 0-6.3164 9.4688-6.3164 9.4688 0"/>
  <path d="m274.18 177.1c0 6.3125-9.4688 6.3125-9.4688 0 0-6.3164 9.4688-6.3164 9.4688 0"/>
  <path d="m250.5 177.1c0 6.3125-9.4727 6.3125-9.4727 0 0-6.3164 9.4727-6.3164 9.4727 0"/>
  <path d="m193.67 281.29c0 3.9219-3.1797 7.1055-7.1016 7.1055-3.9258 0-7.1055-3.1836-7.1055-7.1055s3.1797-7.1055 7.1055-7.1055c3.9219 0 7.1016 3.1836 7.1016 7.1055"/>
  <path d="m214.98 281.29c0 6.3164-9.4727 6.3164-9.4727 0 0-6.3125 9.4727-6.3125 9.4727 0"/>
  <path d="m219.72 257.61c0 5.2305-4.2383 9.4727-9.4688 9.4727-5.2344 0-9.4727-4.2422-9.4727-9.4727s4.2383-9.4727 9.4727-9.4727c5.2305 0 9.4688 4.2422 9.4688 9.4727"/>
  <path d="m226.82 245.77c0 6.3164-9.4727 6.3164-9.4727 0 0-6.3125 9.4727-6.3125 9.4727 0"/>
  <path d="m226.82 271.81c0 6.3164-9.4727 6.3164-9.4727 0 0-6.3125 9.4727-6.3125 9.4727 0"/>
  <path d="m203.14 271.81c0 6.3164-9.4727 6.3164-9.4727 0 0-6.3125 9.4727-6.3125 9.4727 0"/>
  <path d="m219.72 304.96c0 5.2305-4.2383 9.4727-9.4688 9.4727-5.2344 0-9.4727-4.2422-9.4727-9.4727 0-5.2305 4.2383-9.4727 9.4727-9.4727 5.2305 0 9.4688 4.2422 9.4688 9.4727"/>
  <path d="m226.82 293.12c0 6.3125-9.4727 6.3125-9.4727 0 0-6.3164 9.4727-6.3164 9.4727 0"/>
  <path d="m203.14 293.12c0 6.3125-9.4727 6.3125-9.4727 0 0-6.3164 9.4727-6.3164 9.4727 0"/>
  <path d="m219.72 210.25c0 5.2305-4.2383 9.4688-9.4688 9.4688-5.2344 0-9.4727-4.2383-9.4727-9.4688 0-5.2344 4.2383-9.4727 9.4727-9.4727 5.2305 0 9.4688 4.2383 9.4688 9.4727"/>
  <path d="m226.82 198.41c0 6.3125-9.4727 6.3125-9.4727 0 0-6.3164 9.4727-6.3164 9.4727 0"/>
  <path d="m203.14 198.41c0 6.3125-9.4727 6.3125-9.4727 0 0-6.3164 9.4727-6.3164 9.4727 0"/>
  <path d="m226.82 224.46c0 6.3125-9.4727 6.3125-9.4727 0 0-6.3164 9.4727-6.3164 9.4727 0"/>
  <path d="m214.98 186.57c0 6.3125-9.4727 6.3125-9.4727 0 0-6.3164 9.4727-6.3164 9.4727 0"/>
  <path d="m226.82 177.1c0 6.3125-9.4727 6.3125-9.4727 0 0-6.3164 9.4727-6.3164 9.4727 0"/>
  <path d="m430.46 281.29c0 3.9219-3.1836 7.1055-7.1055 7.1055s-7.1055-3.1836-7.1055-7.1055 3.1836-7.1055 7.1055-7.1055 7.1055 3.1836 7.1055 7.1055"/>
  <path d="m404.42 281.29c0 6.3164-9.4727 6.3164-9.4727 0 0-6.3125 9.4727-6.3125 9.4727 0"/>
  <path d="m409.15 257.61c0 5.2305-4.2422 9.4727-9.4727 9.4727-5.2305 0-9.4727-4.2422-9.4727-9.4727s4.2422-9.4727 9.4727-9.4727c5.2305 0 9.4727 4.2422 9.4727 9.4727"/>
  <path d="m392.58 245.77c0 6.3164-9.4727 6.3164-9.4727 0 0-6.3125 9.4727-6.3125 9.4727 0"/>
  <path d="m416.25 245.77c0 6.3164-9.4688 6.3164-9.4688 0 0-6.3125 9.4688-6.3125 9.4688 0"/>
  <path d="m392.58 271.81c0 6.3164-9.4727 6.3164-9.4727 0 0-6.3125 9.4727-6.3125 9.4727 0"/>
  <path d="m416.25 271.81c0 6.3164-9.4688 6.3164-9.4688 0 0-6.3125 9.4688-6.3125 9.4688 0"/>
  <path d="m430.46 233.93c0 3.9258-3.1836 7.1055-7.1055 7.1055s-7.1055-3.1797-7.1055-7.1055c0-3.9219 3.1836-7.1016 7.1055-7.1016s7.1055 3.1797 7.1055 7.1016"/>
  <path d="m404.42 233.93c0 6.3164-9.4727 6.3164-9.4727 0 0-6.3125 9.4727-6.3125 9.4727 0"/>
  <path d="m428.09 257.61c0 6.3164-9.4688 6.3164-9.4688 0 0-6.3125 9.4688-6.3125 9.4688 0"/>
  <path d="m477.82 281.29c0 3.9219-3.1797 7.1055-7.1016 7.1055-3.9258 0-7.1055-3.1836-7.1055-7.1055s3.1797-7.1055 7.1055-7.1055c3.9219 0 7.1016 3.1836 7.1016 7.1055"/>
  <path d="m451.77 281.29c0 6.3164-9.4688 6.3164-9.4688 0 0-6.3125 9.4688-6.3125 9.4688 0"/>
  <path d="m456.51 257.61c0 5.2305-4.2422 9.4727-9.4727 9.4727-5.2305 0-9.4727-4.2422-9.4727-9.4727s4.2422-9.4727 9.4727-9.4727c5.2305 0 9.4727 4.2422 9.4727 9.4727"/>
  <path d="m439.93 245.77c0 6.3164-9.4688 6.3164-9.4688 0 0-6.3125 9.4688-6.3125 9.4688 0"/>
  <path d="m463.61 245.77c0 6.3164-9.4727 6.3164-9.4727 0 0-6.3125 9.4727-6.3125 9.4727 0"/>
  <path d="m439.93 271.81c0 6.3164-9.4688 6.3164-9.4688 0 0-6.3125 9.4688-6.3125 9.4688 0"/>
  <path d="m463.61 271.81c0 6.3164-9.4727 6.3164-9.4727 0 0-6.3125 9.4727-6.3125 9.4727 0"/>
  <path d="m477.82 233.93c0 3.9258-3.1797 7.1055-7.1016 7.1055-3.9258 0-7.1055-3.1797-7.1055-7.1055 0-3.9219 3.1797-7.1016 7.1055-7.1016 3.9219 0 7.1016 3.1797 7.1016 7.1016"/>
  <path d="m451.77 233.93c0 6.3164-9.4688 6.3164-9.4688 0 0-6.3125 9.4688-6.3125 9.4688 0"/>
  <path d="m475.45 257.61c0 6.3164-9.4727 6.3164-9.4727 0 0-6.3125 9.4727-6.3125 9.4727 0"/>
  <path d="m525.18 281.29c0 3.9219-3.1797 7.1055-7.1055 7.1055-3.9219 0-7.1016-3.1836-7.1016-7.1055s3.1797-7.1055 7.1016-7.1055c3.9258 0 7.1055 3.1836 7.1055 7.1055"/>
  <path d="m499.13 281.29c0 6.3164-9.4727 6.3164-9.4727 0 0-6.3125 9.4727-6.3125 9.4727 0"/>
  <path d="m503.87 257.61c0 5.2305-4.2383 9.4727-9.4688 9.4727-5.2344 0-9.4727-4.2422-9.4727-9.4727s4.2383-9.4727 9.4727-9.4727c5.2305 0 9.4688 4.2422 9.4688 9.4727"/>
  <path d="m487.29 245.77c0 6.3164-9.4727 6.3164-9.4727 0 0-6.3125 9.4727-6.3125 9.4727 0"/>
  <path d="m510.97 245.77c0 6.3164-9.4727 6.3164-9.4727 0 0-6.3125 9.4727-6.3125 9.4727 0"/>
  <path d="m487.29 271.81c0 6.3164-9.4727 6.3164-9.4727 0 0-6.3125 9.4727-6.3125 9.4727 0"/>
  <path d="m510.97 271.81c0 6.3164-9.4727 6.3164-9.4727 0 0-6.3125 9.4727-6.3125 9.4727 0"/>
  <path d="m525.18 233.93c0 3.9258-3.1797 7.1055-7.1055 7.1055-3.9219 0-7.1016-3.1797-7.1016-7.1055 0-3.9219 3.1797-7.1016 7.1016-7.1016 3.9258 0 7.1055 3.1797 7.1055 7.1016"/>
  <path d="m499.13 233.93c0 6.3164-9.4727 6.3164-9.4727 0 0-6.3125 9.4727-6.3125 9.4727 0"/>
  <path d="m522.81 257.61c0 6.3164-9.4727 6.3164-9.4727 0 0-6.3125 9.4727-6.3125 9.4727 0"/>
  <path d="m430.46 328.64c0 3.9219-3.1836 7.1016-7.1055 7.1016s-7.1055-3.1797-7.1055-7.1016c0-3.9258 3.1836-7.1055 7.1055-7.1055s7.1055 3.1797 7.1055 7.1055"/>
  <path d="m404.42 328.64c0 6.3125-9.4727 6.3125-9.4727 0 0-6.3164 9.4727-6.3164 9.4727 0"/>
  <path d="m404.42 352.32c0 6.3125-9.4727 6.3125-9.4727 0 0-6.3164 9.4727-6.3164 9.4727 0"/>
  <path d="m409.15 304.96c0 5.2305-4.2422 9.4727-9.4727 9.4727-5.2305 0-9.4727-4.2422-9.4727-9.4727 0-5.2305 4.2422-9.4727 9.4727-9.4727 5.2305 0 9.4727 4.2422 9.4727 9.4727"/>
  <path d="m392.58 293.12c0 6.3125-9.4727 6.3125-9.4727 0 0-6.3164 9.4727-6.3164 9.4727 0"/>
  <path d="m416.25 293.12c0 6.3125-9.4688 6.3125-9.4688 0 0-6.3164 9.4688-6.3164 9.4688 0"/>
  <path d="m392.58 342.85c0 6.3125-9.4727 6.3125-9.4727 0 0-6.3164 9.4727-6.3164 9.4727 0"/>
  <path d="m416.25 342.85c0 6.3125-9.4688 6.3125-9.4688 0 0-6.3164 9.4688-6.3164 9.4688 0"/>
  <path d="m392.58 319.17c0 6.3125-9.4727 6.3125-9.4727 0 0-6.3164 9.4727-6.3164 9.4727 0"/>
  <path d="m416.25 319.17c0 6.3125-9.4688 6.3125-9.4688 0 0-6.3164 9.4688-6.3164 9.4688 0"/>
  <path d="m428.09 304.96c0 6.3125-9.4688 6.3125-9.4688 0 0-6.3164 9.4688-6.3164 9.4688 0"/>
  <path d="m477.82 328.64c0 3.9219-3.1797 7.1016-7.1016 7.1016-3.9258 0-7.1055-3.1797-7.1055-7.1016 0-3.9258 3.1797-7.1055 7.1055-7.1055 3.9219 0 7.1016 3.1797 7.1016 7.1055"/>
  <path d="m456.51 304.96c0 5.2305-4.2422 9.4727-9.4727 9.4727-5.2305 0-9.4727-4.2422-9.4727-9.4727 0-5.2305 4.2422-9.4727 9.4727-9.4727 5.2305 0 9.4727 4.2422 9.4727 9.4727"/>
  <path d="m439.93 293.12c0 6.3125-9.4688 6.3125-9.4688 0 0-6.3164 9.4688-6.3164 9.4688 0"/>
  <path d="m463.61 293.12c0 6.3125-9.4727 6.3125-9.4727 0 0-6.3164 9.4727-6.3164 9.4727 0"/>
  <path d="m439.93 319.17c0 6.3125-9.4688 6.3125-9.4688 0 0-6.3164 9.4688-6.3164 9.4688 0"/>
  <path d="m463.61 319.17c0 6.3125-9.4727 6.3125-9.4727 0 0-6.3164 9.4727-6.3164 9.4727 0"/>
  <path d="m475.45 304.96c0 6.3125-9.4727 6.3125-9.4727 0 0-6.3164 9.4727-6.3164 9.4727 0"/>
  <path d="m499.13 328.64c0 6.3125-9.4727 6.3125-9.4727 0 0-6.3164 9.4727-6.3164 9.4727 0"/>
  <path d="m503.87 304.96c0 5.2305-4.2383 9.4727-9.4688 9.4727-5.2344 0-9.4727-4.2422-9.4727-9.4727 0-5.2305 4.2383-9.4727 9.4727-9.4727 5.2305 0 9.4688 4.2422 9.4688 9.4727"/>
  <path d="m487.29 293.12c0 6.3125-9.4727 6.3125-9.4727 0 0-6.3164 9.4727-6.3164 9.4727 0"/>
  <path d="m510.97 293.12c0 6.3125-9.4727 6.3125-9.4727 0 0-6.3164 9.4727-6.3164 9.4727 0"/>
  <path d="m487.29 319.17c0 6.3125-9.4727 6.3125-9.4727 0 0-6.3164 9.4727-6.3164 9.4727 0"/>
  <path d="m510.97 319.17c0 6.3125-9.4727 6.3125-9.4727 0 0-6.3164 9.4727-6.3164 9.4727 0"/>
  <path d="m522.81 304.96c0 6.3125-9.4727 6.3125-9.4727 0 0-6.3164 9.4727-6.3164 9.4727 0"/>
  <path d="m409.15 210.25c0 5.2305-4.2422 9.4688-9.4727 9.4688-5.2305 0-9.4727-4.2383-9.4727-9.4688 0-5.2344 4.2422-9.4727 9.4727-9.4727 5.2305 0 9.4727 4.2383 9.4727 9.4727"/>
  <path d="m392.58 198.41c0 6.3125-9.4727 6.3125-9.4727 0 0-6.3164 9.4727-6.3164 9.4727 0"/>
  <path d="m416.25 198.41c0 6.3125-9.4688 6.3125-9.4688 0 0-6.3164 9.4688-6.3164 9.4688 0"/>
  <path d="m392.58 224.46c0 6.3125-9.4727 6.3125-9.4727 0 0-6.3164 9.4727-6.3164 9.4727 0"/>
  <path d="m416.25 224.46c0 6.3125-9.4688 6.3125-9.4688 0 0-6.3164 9.4688-6.3164 9.4688 0"/>
  <path d="m430.46 186.57c0 3.9219-3.1836 7.1016-7.1055 7.1016s-7.1055-3.1797-7.1055-7.1016c0-3.9258 3.1836-7.1055 7.1055-7.1055s7.1055 3.1797 7.1055 7.1055"/>
  <path d="m404.42 186.57c0 6.3125-9.4727 6.3125-9.4727 0 0-6.3164 9.4727-6.3164 9.4727 0"/>
  <path d="m428.09 210.25c0 6.3125-9.4688 6.3125-9.4688 0 0-6.3164 9.4688-6.3164 9.4688 0"/>
  <path d="m456.51 210.25c0 5.2305-4.2422 9.4688-9.4727 9.4688-5.2305 0-9.4727-4.2383-9.4727-9.4688 0-5.2344 4.2422-9.4727 9.4727-9.4727 5.2305 0 9.4727 4.2383 9.4727 9.4727"/>
  <path d="m439.93 198.41c0 6.3125-9.4688 6.3125-9.4688 0 0-6.3164 9.4688-6.3164 9.4688 0"/>
  <path d="m463.61 198.41c0 6.3125-9.4727 6.3125-9.4727 0 0-6.3164 9.4727-6.3164 9.4727 0"/>
  <path d="m439.93 224.46c0 6.3125-9.4688 6.3125-9.4688 0 0-6.3164 9.4688-6.3164 9.4688 0"/>
  <path d="m463.61 224.46c0 6.3125-9.4727 6.3125-9.4727 0 0-6.3164 9.4727-6.3164 9.4727 0"/>
  <path d="m477.82 186.57c0 3.9219-3.1797 7.1016-7.1016 7.1016-3.9258 0-7.1055-3.1797-7.1055-7.1016 0-3.9258 3.1797-7.1055 7.1055-7.1055 3.9219 0 7.1016 3.1797 7.1016 7.1055"/>
  <path d="m451.77 186.57c0 6.3125-9.4688 6.3125-9.4688 0 0-6.3164 9.4688-6.3164 9.4688 0"/>
  <path d="m475.45 210.25c0 6.3125-9.4727 6.3125-9.4727 0 0-6.3164 9.4727-6.3164 9.4727 0"/>
  <path d="m503.87 210.25c0 5.2305-4.2383 9.4688-9.4688 9.4688-5.2344 0-9.4727-4.2383-9.4727-9.4688 0-5.2344 4.2383-9.4727 9.4727-9.4727 5.2305 0 9.4688 4.2383 9.4688 9.4727"/>
  <path d="m487.29 198.41c0 6.3125-9.4727 6.3125-9.4727 0 0-6.3164 9.4727-6.3164 9.4727 0"/>
  <path d="m510.97 198.41c0 6.3125-9.4727 6.3125-9.4727 0 0-6.3164 9.4727-6.3164 9.4727 0"/>
  <path d="m487.29 224.46c0 6.3125-9.4727 6.3125-9.4727 0 0-6.3164 9.4727-6.3164 9.4727 0"/>
  <path d="m510.97 224.46c0 6.3125-9.4727 6.3125-9.4727 0 0-6.3164 9.4727-6.3164 9.4727 0"/>
  <path d="m525.18 186.57c0 3.9219-3.1797 7.1016-7.1055 7.1016-3.9219 0-7.1016-3.1797-7.1016-7.1016 0-3.9258 3.1797-7.1055 7.1016-7.1055 3.9258 0 7.1055 3.1797 7.1055 7.1055"/>
  <path d="m499.13 186.57c0 6.3125-9.4727 6.3125-9.4727 0 0-6.3164 9.4727-6.3164 9.4727 0"/>
  <path d="m522.81 210.25c0 6.3125-9.4727 6.3125-9.4727 0 0-6.3164 9.4727-6.3164 9.4727 0"/>
  <path d="m409.15 162.89c0 5.2305-4.2422 9.4727-9.4727 9.4727-5.2305 0-9.4727-4.2422-9.4727-9.4727s4.2422-9.4727 9.4727-9.4727c5.2305 0 9.4727 4.2422 9.4727 9.4727"/>
  <path d="m392.58 151.05c0 6.3125-9.4727 6.3125-9.4727 0 0-6.3164 9.4727-6.3164 9.4727 0"/>
  <path d="m392.58 177.1c0 6.3125-9.4727 6.3125-9.4727 0 0-6.3164 9.4727-6.3164 9.4727 0"/>
  <path d="m416.25 177.1c0 6.3125-9.4688 6.3125-9.4688 0 0-6.3164 9.4688-6.3164 9.4688 0"/>
  <path d="m428.09 162.89c0 6.3125-9.4688 6.3125-9.4688 0 0-6.3164 9.4688-6.3164 9.4688 0"/>
  <path d="m456.51 162.89c0 5.2305-4.2422 9.4727-9.4727 9.4727-5.2305 0-9.4727-4.2422-9.4727-9.4727s4.2422-9.4727 9.4727-9.4727c5.2305 0 9.4727 4.2422 9.4727 9.4727"/>
  <path d="m439.93 151.05c0 6.3125-9.4688 6.3125-9.4688 0 0-6.3164 9.4688-6.3164 9.4688 0"/>
  <path d="m463.61 151.05c0 6.3125-9.4727 6.3125-9.4727 0 0-6.3164 9.4727-6.3164 9.4727 0"/>
  <path d="m439.93 177.1c0 6.3125-9.4688 6.3125-9.4688 0 0-6.3164 9.4688-6.3164 9.4688 0"/>
  <path d="m463.61 177.1c0 6.3125-9.4727 6.3125-9.4727 0 0-6.3164 9.4727-6.3164 9.4727 0"/>
  <path d="m475.45 162.89c0 6.3125-9.4727 6.3125-9.4727 0 0-6.3164 9.4727-6.3164 9.4727 0"/>
  <path d="m487.29 177.1c0 6.3125-9.4727 6.3125-9.4727 0 0-6.3164 9.4727-6.3164 9.4727 0"/>
  <path d="m510.97 177.1c0 6.3125-9.4727 6.3125-9.4727 0 0-6.3164 9.4727-6.3164 9.4727 0"/>
  <path d="m572.54 281.29c0 3.9219-3.1836 7.1055-7.1055 7.1055s-7.1016-3.1836-7.1016-7.1055 3.1797-7.1055 7.1016-7.1055 7.1055 3.1836 7.1055 7.1055"/>
  <path d="m546.49 281.29c0 6.3164-9.4727 6.3164-9.4727 0 0-6.3125 9.4727-6.3125 9.4727 0"/>
  <path d="m551.23 257.61c0 5.2305-4.2422 9.4727-9.4727 9.4727-5.2305 0-9.4727-4.2422-9.4727-9.4727s4.2422-9.4727 9.4727-9.4727c5.2305 0 9.4727 4.2422 9.4727 9.4727"/>
  <path d="m534.65 245.77c0 6.3164-9.4727 6.3164-9.4727 0 0-6.3125 9.4727-6.3125 9.4727 0"/>
  <path d="m534.65 271.81c0 6.3164-9.4727 6.3164-9.4727 0 0-6.3125 9.4727-6.3125 9.4727 0"/>
  <path d="m558.33 271.81c0 6.3164-9.4727 6.3164-9.4727 0 0-6.3125 9.4727-6.3125 9.4727 0"/>
  <path d="m551.23 304.96c0 5.2305-4.2422 9.4727-9.4727 9.4727-5.2305 0-9.4727-4.2422-9.4727-9.4727 0-5.2305 4.2422-9.4727 9.4727-9.4727 5.2305 0 9.4727 4.2422 9.4727 9.4727"/>
  <path d="m534.65 293.12c0 6.3125-9.4727 6.3125-9.4727 0 0-6.3164 9.4727-6.3164 9.4727 0"/>
  <path d="m558.33 293.12c0 6.3125-9.4727 6.3125-9.4727 0 0-6.3164 9.4727-6.3164 9.4727 0"/>
  <path d="m551.23 210.25c0 5.2305-4.2422 9.4688-9.4727 9.4688-5.2305 0-9.4727-4.2383-9.4727-9.4688 0-5.2344 4.2422-9.4727 9.4727-9.4727 5.2305 0 9.4727 4.2383 9.4727 9.4727"/>
  <path d="m534.65 198.41c0 6.3125-9.4727 6.3125-9.4727 0 0-6.3164 9.4727-6.3164 9.4727 0"/>
  <path d="m558.33 198.41c0 6.3125-9.4727 6.3125-9.4727 0 0-6.3164 9.4727-6.3164 9.4727 0"/>
  <path d="m534.65 224.46c0 6.3125-9.4727 6.3125-9.4727 0 0-6.3164 9.4727-6.3164 9.4727 0"/>
  <path d="m546.49 186.57c0 6.3125-9.4727 6.3125-9.4727 0 0-6.3164 9.4727-6.3164 9.4727 0"/>
  <path d="m534.65 177.1c0 6.3125-9.4727 6.3125-9.4727 0 0-6.3164 9.4727-6.3164 9.4727 0"/>
 </g>
</svg>
