<?xml version="1.0" encoding="UTF-8"?>
<svg width="752pt" height="752pt" version="1.1" viewBox="0 0 752 752" xmlns="http://www.w3.org/2000/svg">
 <defs>
  <clipPath id="d">
   <path d="m367 139.21h18v84.789h-18z"/>
  </clipPath>
  <clipPath id="c">
   <path d="m139.21 367h84.789v18h-84.789z"/>
  </clipPath>
  <clipPath id="b">
   <path d="m367 528h18v84.793h-18z"/>
  </clipPath>
  <clipPath id="a">
   <path d="m528 367h84.793v18h-84.793z"/>
  </clipPath>
 </defs>
 <path d="m511.34 376c0 74.746-60.598 135.34-135.34 135.34s-135.34-60.598-135.34-135.34 60.594-135.34 135.34-135.34 135.34 60.594 135.34 135.34"/>
 <g clip-path="url(#d)">
  <path d="m376 223.79c-4.6562 0-8.4336-3.7773-8.4336-8.4336v-67.707c0-4.6602 3.7773-8.4375 8.4336-8.4375 4.6602 0 8.4375 3.7773 8.4375 8.4375v67.707c0 4.6562-3.7773 8.4336-8.4375 8.4336z"/>
 </g>
 <path d="m295.64 245.32c-3.0391 0-5.8555-1.6016-7.3984-4.2188l-33.742-58.605c-2.332-4.0859-0.90625-9.2891 3.1797-11.617 4.0859-2.332 9.2891-0.90625 11.617 3.1797l33.816 58.531c1.1445 1.9375 1.4609 4.2539 0.875 6.4258-0.58594 2.1719-2.0195 4.0195-3.9805 5.1211-1.3086 0.80859-2.8281 1.2188-4.3672 1.1836z"/>
 <path d="m236.81 304.15c-1.4883 0-2.9453-0.41016-4.2188-1.1836l-58.531-33.816c-1.9609-1.1172-3.3984-2.9688-3.9961-5.1484s-0.30469-4.5039 0.81641-6.4688c2.3281-4.0859 7.5312-5.5117 11.617-3.1797l58.605 33.816c3.2969 1.9453 4.8828 5.8555 3.8828 9.5508s-4.3477 6.2656-8.1758 6.2852z"/>
 <g clip-path="url(#c)">
  <path d="m215.36 384.44h-67.707c-4.6602 0-8.4375-3.7773-8.4375-8.4375 0-4.6562 3.7773-8.4336 8.4375-8.4336h67.707c4.6562 0 8.4336 3.7773 8.4336 8.4336 0 4.6602-3.7773 8.4375-8.4336 8.4375z"/>
 </g>
 <path d="m178.28 498.61c-3.832 0.015625-7.1953-2.5508-8.1836-6.2539-0.99219-3.7031 0.63672-7.6055 3.9648-9.5078l58.531-33.816c4.0898-2.3477 9.3047-0.94141 11.656 3.1445 2.3477 4.0898 0.94141 9.3047-3.1445 11.656l-58.605 33.668c-1.2891 0.72266-2.7422 1.1016-4.2188 1.1094z"/>
 <path d="m261.82 582.23c-1.4883 0-2.9453-0.41016-4.2188-1.1836-1.9453-1.1133-3.3672-2.9609-3.9492-5.125-0.58594-2.168-0.28125-4.4766 0.84375-6.418l33.816-58.605c1.1289-1.9648 2.9883-3.3984 5.1758-3.9883 2.1836-0.58984 4.5156-0.28516 6.4766 0.84375 4.0859 2.3477 5.4961 7.5664 3.1445 11.652l-33.816 58.531c-1.5039 2.7031-4.3789 4.3555-7.4727 4.293z"/>
 <g clip-path="url(#b)">
  <path d="m376 612.79c-4.6562 0-8.4336-3.7773-8.4336-8.4375v-67.707c0-4.6602 3.7773-8.4336 8.4336-8.4336 4.6602 0 8.4375 3.7734 8.4375 8.4336v67.707c0 2.2383-0.89062 4.3828-2.4727 5.9648-1.582 1.582-3.7266 2.4727-5.9648 2.4727z"/>
 </g>
 <path d="m490.18 582.23c-3.0664 0.035156-5.9062-1.6133-7.4023-4.293l-33.816-58.531c-2.3477-4.0859-0.94141-9.3047 3.1445-11.652 4.0898-2.3516 9.3047-0.94141 11.656 3.1445l33.816 58.605c1.1172 1.9492 1.4102 4.2656 0.8125 6.4336s-2.0352 4.0078-3.9922 5.1094c-1.2734 0.77344-2.7305 1.1836-4.2188 1.1836z"/>
 <path d="m573.72 498.61c-1.4766-0.007812-2.9297-0.38672-4.2188-1.1094l-58.605-33.816c-4.0859-2.3477-5.4961-7.5664-3.1445-11.652 2.3477-4.0898 7.5664-5.4961 11.652-3.1484l58.531 33.816v0.003906c3.3281 1.8984 4.957 5.8008 3.9688 9.5039-0.99219 3.7031-4.3516 6.2734-8.1836 6.2539z"/>
 <g clip-path="url(#a)">
  <path d="m604.36 384.44h-67.707c-4.6602 0-8.4336-3.7773-8.4336-8.4375 0-4.6562 3.7734-8.4336 8.4336-8.4336h67.707c4.6602 0 8.4375 3.7773 8.4375 8.4336 0 4.6602-3.7773 8.4375-8.4375 8.4375z"/>
 </g>
 <path d="m515.19 304.15c-3.8281-0.015626-7.1758-2.5859-8.1758-6.2812-1.0039-3.6953 0.58594-7.6055 3.8828-9.5508l58.605-33.816c4.0859-2.332 9.2891-0.90625 11.617 3.1797 2.3281 4.0859 0.90625 9.2891-3.1836 11.617l-58.531 33.816c-1.2852 0.72266-2.7422 1.082-4.2148 1.0352z"/>
 <path d="m456.36 245.32c-1.4922 0.007812-2.9531-0.40234-4.2188-1.1836-1.9609-1.1016-3.3984-2.9492-3.9805-5.1211-0.58594-2.1719-0.26953-4.4883 0.87109-6.4258l33.816-58.531c1.1211-1.9609 2.9727-3.3984 5.1523-3.9961 2.1758-0.59766 4.5039-0.30469 6.4648 0.81641 4.0898 2.3281 5.5117 7.5312 3.1836 11.617l-33.816 58.605c-1.5586 2.6406-4.4062 4.2461-7.4727 4.2188z"/>
</svg>
