<?xml version="1.0" encoding="UTF-8"?>
<svg width="752pt" height="752pt" version="1.1" viewBox="0 0 752 752" xmlns="http://www.w3.org/2000/svg">
 <g>
  <path d="m597.34 456.3c-6.1289-28.832-29.527-51.953-58.363-57.945-17.133-3.6211-33.43-1.3945-47.496 4.875-2.2266 0.97656-4.5977-0.41797-4.875-2.7852-4.7344-57.109-52.512-101.96-110.88-101.96-47.496 0-87.891 29.668-103.91 71.594-2.5273 6.0664-9.8633-3.7773-37.328-0.83594-44.574 4.3164-80.371 42.762-81.625 87.613-1.2539 48.891 36.355 89.285 84.129 92.625l-0.27734 0.27734h290.42v-0.13672c45.551-2.6445 80.512-45.266 70.203-93.32z"/>
  <path d="m542.59 257.4c-15.32 0-27.859 12.535-27.859 27.859v0.14062c-0.14062 0-0.27734-0.14062-0.55859-0.14062-15.324 0-27.859 12.535-27.859 27.859 0 15.461 12.535 27.859 27.859 27.859h56.273c15.539-0.28125 27.578-12.656 27.578-27.859 0-15.32-12.258-27.578-27.578-27.859 0-15.324-12.395-27.859-27.855-27.859z"/>
  <path d="m153.28 333.45c0 14.066 4.457 27.16 11.98 37.746 27.066-24.379 61.938-33.094 89.285-29.809 23.121-41.648 66.301-68.668 115.33-70.621-5.8516-1.8125-11.98-2.7852-18.387-2.7852v-0.14062c0-36.215-29.391-65.605-65.605-65.605-36.219 0.007813-65.609 29.398-65.609 65.609v0.14062c-0.55859 0-0.97656-0.14062-1.3945-0.14062-36.211 0-65.602 29.391-65.602 65.605z"/>
 </g>
</svg>
