<?xml version="1.0" encoding="UTF-8"?>
<svg width="752pt" height="752pt" version="1.1" viewBox="0 0 752 752" xmlns="http://www.w3.org/2000/svg">
 <path d="m582.54 285.09-11.633-2.2969c-23.961-4.7227-28.52-21.742-10.152-37.812l8.9375-7.8008c18.383-16.07 14.504-22.777-8.582-14.887l-11.262 3.832c-23.117 7.8867-35.535-4.5742-27.676-27.691l3.8789-11.234c7.8438-23.117 1.1562-26.98-14.918-8.5977l-7.8008 8.9375c-16.074 18.387-33.062 13.828-37.828-10.133l-2.293-11.648c-4.6328-23.961-12.477-23.961-17.168 0l-2.2656 11.648c-4.7344 23.961-21.801 28.52-37.871 10.137l-7.7695-8.9375c-16.07-18.379-22.777-14.516-14.887 8.6016l3.832 11.234c5.4922 16.102 0.93359 26.832-10.02 29.316 7.1055 2.5 14.031 5.5508 20.543 9.3242 14.547-14.668 34.766-23.754 57.035-23.754 44.398 0 80.406 35.977 80.406 80.375 0 5.4023-0.54688 10.672-1.5391 15.762 0.058593 0.089844 0.11719 0.16406 0.17578 0.25 6.2734 1.5977 12.016 4.1719 17.582 7.1328 2.7812-5.6836 9.293-10.195 19.816-12.27l11.602-2.2773c23.816-4.75 23.816-12.492-0.14453-17.211zm-154.89-23.562c5.668-0.94531 11.41-1.4219 17.227-1.4219 28.992 0 55.809 12.004 75.18 32.262-0.72656-35.535-29.719-64.258-65.441-64.258-17.137 0-32.633 6.7617-44.309 17.551 6.1836 4.7109 12.016 9.9492 17.344 15.867zm-183 249.52c0 8.1836 6.6289 14.801 14.801 14.801 8.168 0 14.801-6.6172 14.801-14.801s-14.801-38.848-14.801-38.848-14.801 30.664-14.801 38.848zm116.55 44.398c0 8.1836 6.6289 14.801 14.801 14.801 8.1836 0 14.801-6.6172 14.801-14.801-0.003907-8.1836-14.805-38.848-14.805-38.848s-14.797 30.664-14.797 38.848zm162.89-232.65c-15.391-29.375-45.508-47.891-79.223-47.891-7.7383 0-15.438 0.99219-22.863 2.9609-20.602-26.789-52.078-42.461-86.309-42.461-51.992 0-96.566 37.34-106.84 87.184-31.848 4.6328-56.371 32.113-56.371 65.207 0 36.332 29.57 65.902 65.902 65.902h275.16c36.348 0 65.93-29.57 66.004-65.887 0-32.633-24.121-59.953-55.469-65.016zm-10.535 101.3h-275.16c-20.023 0-36.305-16.281-36.305-36.305 0-19.992 16.25-36.258 36.109-36.258 0.03125 0 0.042969 0 0.058594-0.015625l17.078 1.1094 1.1406-14.445c3.2422-41.039 38.035-73.184 79.207-73.184 27.867 0 53.219 14.266 67.824 38.152l6.6172 10.82 11.707-4.8828c7.2969-3.0625 15.082-4.6016 23.043-4.6016 24.625 0 46.426 14.812 55.527 37.723l3.6719 9.2188 9.9141 0.11719c19.801 0.23828 35.902 16.5 35.902 36.242 0 20-16.309 36.309-36.332 36.309zm-35.816 86.949c0 8.1836 6.6172 14.801 14.801 14.801s14.801-6.6172 14.801-14.801-14.801-38.848-14.801-38.848-14.801 30.664-14.801 38.848z"/>
</svg>
