<?xml version="1.0" encoding="UTF-8"?>
<svg width="752pt" height="752pt" version="1.1" viewBox="0 0 752 752" xmlns="http://www.w3.org/2000/svg">
 <g>
  <path d="m533.86 449.01c0.011719-5.2031-1.8477-10.238-5.2422-14.184-3.3906-3.9414-8.0898-6.5352-13.238-7.3008-5.1445-0.76562-10.395 0.34766-14.789 3.1328-1.9102-3.625-5.3438-6.2031-9.3594-7.0234-4.0156-0.81641-8.1875 0.21094-11.359 2.8008-6.4961-3.9258-14.566-4.168-21.285-0.63672-6.7148 3.5273-11.098 10.309-11.551 17.883-1.2852-0.36719-2.6094-0.56641-3.9453-0.58984-4.9062-0.007812-9.5352 2.2617-12.527 6.1484-2.9961 3.8828-4.0117 8.9375-2.7578 13.676 1.2539 4.7422 4.6406 8.6289 9.168 10.523-5.8789 4.7266-9.5664 11.652-10.207 19.168s1.8164 14.969 6.8047 20.625 12.074 9.0273 19.609 9.332c7.5352 0.30469 14.871-2.4883 20.297-7.7266 2.8242 5.0508 7.5469 8.7617 13.121 10.316 5.5742 1.5508 11.535 0.8125 16.562-2.0508 5.0312-2.8633 8.707-7.6133 10.215-13.199 0.89453 0.19531 1.8086 0.28516 2.7227 0.27734 6.9102-0.054688 12.715-5.207 13.59-12.062 0.87891-6.8516-3.4453-13.297-10.117-15.09 1.6016-2.5 2.4492-5.4023 2.4492-8.3672-0.015626-1.9883-0.40234-3.957-1.1445-5.8008 3.8594-1.6875 7.1445-4.4648 9.4492-7.9922 2.3047-3.5234 3.5352-7.6445 3.5352-11.859zm-82.879 57.223c-1.5938 0-3.0352-0.96094-3.6445-2.4336-0.61328-1.4766-0.27344-3.1719 0.85547-4.3008 1.1289-1.1289 2.8242-1.4688 4.3008-0.85547 1.4727 0.60938 2.4336 2.0508 2.4336 3.6445 0 1.0469-0.41406 2.0508-1.1523 2.793-0.74219 0.73828-1.7461 1.1523-2.793 1.1523zm3.9453-23.68v0.003906c-1.5938 0-3.0352-0.96484-3.6445-2.4375-0.60938-1.4766-0.27344-3.1719 0.85547-4.3008 1.1289-1.1289 2.8281-1.4648 4.3008-0.85547 1.4766 0.60938 2.4375 2.0508 2.4375 3.6445 0 1.0469-0.41797 2.0508-1.1562 2.793-0.74219 0.73828-1.7461 1.1562-2.793 1.1562zm7.8945-28.18v0.003906c0.23438-1.5703 1.3906-2.8477 2.9336-3.2383 1.5391-0.39062 3.1641 0.17969 4.1211 1.4453 0.95703 1.2695 1.0586 2.9883 0.26172 4.3633-0.80078 1.375-2.3477 2.1328-3.9219 1.9297-1.0508-0.13672-2.0039-0.69141-2.6406-1.5391-0.64062-0.84375-0.91016-1.9141-0.75391-2.9609zm9.8672 51.859c-2.3945 0-4.5547-1.4414-5.4688-3.6523-0.91797-2.2109-0.41016-4.7578 1.2812-6.4531 1.6953-1.6914 4.2422-2.1992 6.4531-1.2812 2.2109 0.91406 3.6523 3.0742 3.6523 5.4688 0 3.2695-2.6484 5.918-5.918 5.918zm17.758-27.625c-1.5938 0-3.0352-0.96094-3.6445-2.4336-0.61328-1.4766-0.27344-3.1719 0.85547-4.3008s2.8242-1.4688 4.3008-0.85547c1.4727 0.60938 2.4375 2.0469 2.4375 3.6445 0 1.0469-0.41797 2.0508-1.1562 2.7891-0.74219 0.74219-1.7461 1.1562-2.793 1.1562zm7.8945 23.68c-1.5977 0-3.0352-0.96094-3.6484-2.4375-0.60937-1.4727-0.26953-3.1719 0.85547-4.3008 1.1289-1.125 2.8281-1.4648 4.3008-0.85547 1.4766 0.61328 2.4375 2.0508 2.4375 3.6484 0 1.0469-0.41406 2.0508-1.1562 2.7891-0.73828 0.74219-1.7422 1.1562-2.7891 1.1562zm5.918-43.41c-2.3945 0-4.5508-1.4414-5.4688-3.6562-0.91406-2.2109-0.41016-4.7578 1.2852-6.4492 1.6914-1.6953 4.2383-2.1992 6.4492-1.2852 2.2148 0.91797 3.6562 3.0742 3.6562 5.4688 0 3.2695-2.6523 5.9219-5.9219 5.9219z"/>
  <path d="m557.54 435.2c0 5.2617-7.8906 5.2617-7.8906 0s7.8906-5.2617 7.8906 0"/>
  <path d="m411.52 462.82c0 5.2617-7.8906 5.2617-7.8906 0s7.8906-5.2617 7.8906 0"/>
  <path d="m557.54 452.96c0 3.2695-2.6484 5.9219-5.918 5.9219-3.2695 0-5.918-2.6523-5.918-5.9219s2.6484-5.918 5.918-5.918c3.2695 0 5.918 2.6484 5.918 5.918"/>
  <path d="m415.46 512.16c0 3.2695-2.6484 5.918-5.918 5.918s-5.918-2.6484-5.918-5.918 2.6484-5.9219 5.918-5.9219 5.918 2.6523 5.918 5.9219"/>
  <path d="m510.18 336.54h-7.8945c0.003907-23.895-12.004-46.191-31.961-59.336-19.953-13.145-45.184-15.379-67.137-5.9375-14.656-25.191-40.516-41.809-69.52-44.68-29-2.8672-57.617 8.3633-76.926 30.191-19.309 21.832-26.961 51.605-20.57 80.039-15.703 1.4102-30.309 8.6406-40.949 20.273-10.641 11.637-16.543 26.828-16.551 42.594 0 16.746 6.6523 32.809 18.496 44.652 11.84 11.84 27.902 18.492 44.648 18.492h153.91c0-6.5391 5.3008-11.84 11.84-11.84 6.5391 0 11.84 5.3008 11.84 11.84h0.35547c-1.1914-6.5 0.41016-13.203 4.4141-18.461 4.0039-5.2578 10.035-8.582 16.621-9.1641 2.625-7.5781 8.2227-13.762 15.504-17.125s15.617-3.6211 23.09-0.71484c2.8516-1.293 5.9492-1.9375 9.0781-1.8945 5.3008 0 10.414 1.9531 14.367 5.4883 8.1602-2.7266 17.105-1.7539 24.492 2.6562 7.3867 4.4141 12.48 11.832 13.945 20.312 0.71094-0.83203 1.5195-1.5703 2.4062-2.2109-1.8828-2.8281-2.4609-6.332-1.582-9.6172 0.875-3.2852 3.125-6.0312 6.168-7.5469 3.043-1.5117 6.5898-1.6445 9.7383-0.36328 3.1484 1.2852 5.5938 3.8594 6.7109 7.0703 5.6094-9.5781 8.5781-20.473 8.6055-31.574 0-16.746-6.6523-32.809-18.496-44.648-11.84-11.844-27.902-18.496-44.648-18.496z"/>
  <path d="m407.57 480.58c0 3.2695-2.6523 5.9219-5.9219 5.9219-3.2695 0-5.918-2.6523-5.918-5.9219 0-3.2656 2.6484-5.918 5.918-5.918 3.2695 0 5.9219 2.6523 5.9219 5.918"/>
 </g>
</svg>
