<?xml version="1.0" encoding="UTF-8"?>
<svg width="752pt" height="752pt" version="1.1" viewBox="0 0 752 752" xmlns="http://www.w3.org/2000/svg">
 <defs>
  <clipPath id="a">
   <path d="m139.21 170h473.58v412h-473.58z"/>
  </clipPath>
 </defs>
 <g clip-path="url(#a)">
  <path d="m503.12 481.73h-184.64c-34.238 0-63.27-16.586-79.656-45.5-7.1133-12.605-11.469-27.137-12.551-42.027-1.0977-14.891 1.0781-30.055 6.3164-43.883 10.996-28.992 33.68-49.914 64.285-59.5 7.1875-16.82 18.582-29.762 33.227-37.621 16.754-8.9883 37.023-10.988 59.453-5.8047 9.5664-7.1797 19.977-12.625 30.992-16.254 18.441-6.0508 38.199-6.6484 56.762-1.6953 18.648 4.9648 35.605 15.324 49.074 29.949 8.668 9.4336 15.77 20.457 21.094 32.84 27.383 10.484 48.645 31.324 58.848 58.004 5.5508 14.531 7.5664 30.215 5.9102 45.406-1.7344 15.797-7.418 30.914-16.48 43.672-19.41 27.363-52.312 42.414-92.633 42.414m66.965 49.98h-301.38c-7.4727 0-13.508-6.0352-13.508-13.508 0-7.4531 6.0352-13.488 13.508-13.488h301.38c7.4531 0 13.508 6.0352 13.508 13.488 0.007812 7.4727-6.0469 13.508-13.508 13.508zm0 49.98h-301.38c-7.4727 0-13.508-6.0352-13.508-13.508 0-7.4531 6.0352-13.488 13.508-13.488h301.38c7.4531 0 13.508 6.0352 13.508 13.488 0.007812 7.4766-6.0469 13.508-13.508 13.508zm-356.88-192.92c-32.953-9.7734-60.543-34.496-73.113-67.516-1.6875-4.4531-0.91797-9.4336 2.0156-13.164 2.9375-3.7109 7.6445-5.6836 12.312-5.0391 3.5234 0.44531 7.1211 0.69141 10.758 0.69141 46.828 0 84.914-38.113 84.914-84.922 0-10.391-1.8672-20.555-5.5508-30.203-1.6758-4.4219-0.91797-9.4336 2.0156-13.156 2.9375-3.7305 7.625-5.6172 12.312-5.0664 38.957 4.9453 71.219 29.762 87.109 63.48-7.5391 1.6289-14.898 4.2617-21.938 8.043-16.215 8.6953-28.414 22.27-36.496 38.539-31.113 11.32-55.039 33.938-66.938 65.324-5.1758 13.637-7.668 28.367-7.4023 42.988z"/>
 </g>
</svg>
