<?xml version="1.0" encoding="UTF-8"?>
<svg width="752pt" height="752pt" version="1.1" viewBox="0 0 752 752" xmlns="http://www.w3.org/2000/svg">
 <g>
  <path d="m510.18 384.88h-7.8945c0.003907-23.898-12.004-46.195-31.961-59.34-19.953-13.145-45.184-15.375-67.137-5.9375-14.656-25.188-40.516-41.809-69.52-44.68-29-2.8672-57.617 8.3633-76.926 30.195-19.309 21.828-26.961 51.602-20.57 80.035-15.703 1.4102-30.309 8.6406-40.949 20.277-10.641 11.633-16.543 26.824-16.551 42.59 0 16.75 6.6523 32.809 18.496 44.652 11.84 11.84 27.902 18.492 44.648 18.492h268.36c16.746 0 32.809-6.6523 44.648-18.492 11.844-11.844 18.496-27.902 18.496-44.652 0-16.746-6.6523-32.805-18.496-44.648-11.84-11.84-27.902-18.492-44.648-18.492z"/>
  <path d="m502.57 351.1c9.9102-7.5625 15.66-19.363 15.516-31.828-0.14453-12.465-6.1719-24.129-16.254-31.461-10.082-7.332-23.035-9.4648-34.938-5.7617-11.902 3.707-21.355 12.816-25.496 24.574 26.629 3.457 49.676 20.211 61.172 44.477z"/>
  <path d="m478.61 272.41c1.0469 0 2.0508-0.41797 2.793-1.1562 0.73828-0.74219 1.1562-1.7461 1.1562-2.7891v-23.68c0-2.1797-1.7695-3.9492-3.9492-3.9492s-3.9453 1.7695-3.9453 3.9492v23.68c0 1.043 0.41406 2.0469 1.1562 2.7891 0.73828 0.73828 1.7422 1.1562 2.7891 1.1562z"/>
  <path d="m525.97 319.77c0 1.043 0.41406 2.0469 1.1562 2.7891 0.73828 0.73828 1.7422 1.1562 2.7891 1.1562h23.68c2.1797 0 3.9453-1.7695 3.9453-3.9453 0-2.1797-1.7656-3.9492-3.9453-3.9492h-23.68c-2.1797 0-3.9453 1.7695-3.9453 3.9492z"/>
  <path d="m517.68 286.26 16.734-16.812c0.83594-0.71484 1.3359-1.7461 1.375-2.8438 0.042969-1.1016-0.375-2.168-1.1523-2.9453-0.77734-0.77734-1.8438-1.1953-2.9414-1.1523-1.0977 0.042969-2.1289 0.54297-2.8438 1.3789l-16.734 16.734v-0.003907c-1.3398 1.5664-1.25 3.9023 0.20703 5.3594 1.457 1.457 3.7891 1.5469 5.3555 0.20703z"/>
  <path d="m439.54 286.26c1.5664 1.3398 3.9023 1.25 5.3594-0.20703 1.457-1.457 1.5469-3.793 0.20703-5.3594l-16.734-16.734v0.003907c-1.5625-1.1914-3.7617-1.0508-5.1602 0.32812-1.3984 1.3789-1.5703 3.5781-0.40234 5.1562z"/>
  <path d="m512.12 353.27c-1.5312 1.5391-1.5312 4.0234 0 5.5664l16.734 16.734v-0.003906c1.5625 1.3438 3.8984 1.25 5.3555-0.20703s1.5469-3.7891 0.20703-5.3555l-16.734-16.734c-1.5391-1.5312-4.0234-1.5312-5.5625 0z"/>
  <path d="m362.19 525.97h-55.25c-2.1797 0-3.9453 1.7656-3.9453 3.9453 0 2.1797 1.7656 3.9492 3.9453 3.9492h55.25c2.1797 0 3.9492-1.7695 3.9492-3.9492 0-2.1797-1.7695-3.9453-3.9492-3.9453z"/>
  <path d="m295.1 533.86c2.1797 0 3.9453-1.7695 3.9453-3.9492 0-2.1797-1.7656-3.9453-3.9453-3.9453h-47.359c-2.1797 0-3.9453 1.7656-3.9453 3.9453 0 2.1797 1.7656 3.9492 3.9453 3.9492z"/>
  <path d="m488.48 533.86c2.1797 0 3.9453-1.7695 3.9453-3.9492 0-2.1797-1.7656-3.9453-3.9453-3.9453h-15.785c-2.1797 0-3.9453 1.7656-3.9453 3.9453 0 2.1797 1.7656 3.9492 3.9453 3.9492z"/>
  <path d="m460.85 525.97h-82.875c-2.1797 0-3.9492 1.7656-3.9492 3.9453 0 2.1797 1.7695 3.9492 3.9492 3.9492h82.875c2.1797 0 3.9453-1.7695 3.9453-3.9492 0-2.1797-1.7656-3.9453-3.9453-3.9453z"/>
  <path d="m334.56 549.65c2.1797 0 3.9453-1.7695 3.9453-3.9453 0-2.1797-1.7656-3.9492-3.9453-3.9492h-102.61c-2.1797 0-3.9453 1.7695-3.9453 3.9492 0 2.1758 1.7656 3.9453 3.9453 3.9453z"/>
  <path d="m342.46 545.7c0 1.043 0.41406 2.0469 1.1562 2.7891 0.73828 0.73828 1.7422 1.1562 2.7891 1.1562h35.52c2.1797 0 3.9453-1.7695 3.9453-3.9453 0-2.1797-1.7656-3.9492-3.9453-3.9492h-35.52c-2.1797 0-3.9453 1.7695-3.9453 3.9492z"/>
  <path d="m409.55 565.43c2.1797 0 3.9453-1.7656 3.9453-3.9453 0-2.1797-1.7656-3.9492-3.9453-3.9492h-82.875c-2.1797 0-3.9492 1.7695-3.9492 3.9492 0 2.1797 1.7695 3.9453 3.9492 3.9453z"/>
  <path d="m239.85 557.54c-2.1797 0-3.9492 1.7695-3.9492 3.9492 0 2.1797 1.7695 3.9453 3.9492 3.9453h35.52c2.1797 0 3.9453-1.7656 3.9453-3.9453 0-2.1797-1.7656-3.9492-3.9453-3.9492z"/>
  <path d="m287.2 557.54c-2.1797 0-3.9453 1.7695-3.9453 3.9492 0 2.1797 1.7656 3.9453 3.9453 3.9453h27.629c2.1797 0 3.9453-1.7656 3.9453-3.9453 0-2.1797-1.7656-3.9492-3.9453-3.9492z"/>
  <path d="m362.19 573.33h-31.57c-2.1797 0-3.9453 1.7656-3.9453 3.9453 0 2.1797 1.7656 3.9453 3.9453 3.9453h31.57c2.1797 0 3.9492-1.7656 3.9492-3.9453 0-2.1797-1.7695-3.9453-3.9492-3.9453z"/>
  <path d="m318.78 573.33h-82.879c-2.1758 0-3.9453 1.7656-3.9453 3.9453 0 2.1797 1.7695 3.9453 3.9453 3.9453h82.879c2.1797 0 3.9453-1.7656 3.9453-3.9453 0-2.1797-1.7656-3.9453-3.9453-3.9453z"/>
  <path d="m401.65 573.33h-23.68 0.003906c-2.1797 0-3.9492 1.7656-3.9492 3.9453 0 2.1797 1.7695 3.9453 3.9492 3.9453h23.68-0.003906c2.1797 0 3.9492-1.7656 3.9492-3.9453 0-2.1797-1.7695-3.9453-3.9492-3.9453z"/>
  <path d="m520.05 573.33h-106.56c-2.1797 0-3.9453 1.7656-3.9453 3.9453 0 2.1797 1.7656 3.9453 3.9453 3.9453h106.56c2.1797 0 3.9453-1.7656 3.9453-3.9453 0-2.1797-1.7656-3.9453-3.9453-3.9453z"/>
  <path d="m421.39 557.54c-2.1797 0-3.9453 1.7695-3.9453 3.9492 0 2.1797 1.7656 3.9453 3.9453 3.9453h82.875c2.1797 0 3.9492-1.7656 3.9492-3.9453 0-2.1797-1.7695-3.9492-3.9492-3.9492z"/>
  <path d="m389.81 545.7c0 1.043 0.41797 2.0469 1.1562 2.7891 0.74219 0.73828 1.7461 1.1562 2.793 1.1562h114.45c2.1797 0 3.9453-1.7695 3.9453-3.9453 0-2.1797-1.7656-3.9492-3.9453-3.9492h-114.45c-2.1797 0-3.9492 1.7695-3.9492 3.9492z"/>
 </g>
</svg>
