<?xml version="1.0" encoding="UTF-8"?>
<svg width="752pt" height="752pt" version="1.1" viewBox="0 0 752 752" xmlns="http://www.w3.org/2000/svg">
 <g>
  <path d="m583.19 531.91c-13.602 0.22656-26.816-4.5352-37.145-13.395-12.949-10.484-29.105-16.203-45.766-16.203-16.664 0-32.82 5.7188-45.77 16.203-10.43 8.6562-23.555 13.395-37.109 13.395-13.551 0-26.68-4.7383-37.109-13.395-12.949-10.484-29.105-16.203-45.766-16.203-16.664 0-32.82 5.7188-45.77 16.203-10.297 8.8594-23.488 13.625-37.07 13.395-13.605 0.22656-26.82-4.5352-37.148-13.395-12.816-10.691-29.039-16.438-45.73-16.207-4.0859 0-7.3984 3.3164-7.3984 7.4023 0 4.0859 3.3125 7.3984 7.3984 7.3984 13.602-0.21484 26.812 4.5469 37.148 13.395 12.816 10.691 29.039 16.438 45.73 16.203 16.688 0.22266 32.902-5.5273 45.73-16.203 10.43-8.6562 23.555-13.395 37.109-13.395 13.551 0 26.68 4.7383 37.109 13.395 12.934 10.484 29.078 16.203 45.73 16.203 16.648 0 32.793-5.7188 45.73-16.203 10.457-8.6562 23.605-13.395 37.184-13.395 13.574 0 26.723 4.7383 37.184 13.395 12.816 10.691 29.039 16.438 45.727 16.203 4.0898 0 7.4023-3.3125 7.4023-7.3984s-3.3125-7.3984-7.4023-7.3984z"/>
  <path d="m583.19 568.91c-13.602 0.23047-26.816-4.5352-37.145-13.391-12.949-10.484-29.105-16.207-45.766-16.207-16.664 0-32.82 5.7227-45.77 16.207-10.43 8.6523-23.555 13.391-37.109 13.391-13.551 0-26.68-4.7383-37.109-13.391-12.949-10.484-29.105-16.207-45.766-16.207-16.664 0-32.82 5.7227-45.77 16.207-10.297 8.8555-23.488 13.621-37.07 13.391-13.605 0.23047-26.82-4.5352-37.148-13.391-12.816-10.691-29.039-16.441-45.73-16.207-4.0859 0-7.3984 3.3125-7.3984 7.3984 0 4.0898 3.3125 7.4023 7.3984 7.4023 13.602-0.21484 26.812 4.5469 37.148 13.391 12.816 10.691 29.039 16.441 45.73 16.207 16.688 0.21875 32.902-5.5273 45.73-16.207 10.43-8.6523 23.555-13.391 37.109-13.391 13.551 0 26.68 4.7383 37.109 13.391 12.934 10.484 29.078 16.207 45.73 16.207 16.648 0 32.793-5.7227 45.73-16.207 10.457-8.6562 23.605-13.391 37.184-13.391 13.574 0 26.723 4.7344 37.184 13.391 12.816 10.691 29.039 16.441 45.727 16.207 4.0898 0 7.4023-3.3125 7.4023-7.3984s-3.3125-7.4023-7.4023-7.4023z"/>
  <path d="m168.81 480.11c13.602-0.21484 26.812 4.5508 37.148 13.395 12.816 10.691 29.039 16.441 45.73 16.207 16.688 0.21875 32.902-5.5273 45.73-16.207 10.43-8.6523 23.555-13.391 37.109-13.391 13.551 0 26.68 4.7383 37.109 13.391 12.934 10.484 29.078 16.207 45.73 16.207 16.648 0 32.793-5.7227 45.73-16.207 10.457-8.6562 23.605-13.395 37.184-13.395 13.574 0 26.723 4.7383 37.184 13.395 12.816 10.691 29.039 16.441 45.727 16.207 1.9648 0 3.8477-0.78125 5.2344-2.168s2.168-3.2695 2.168-5.2344c-0.011719-1.4141-0.48047-2.7891-1.332-3.9219 0.44531-0.94531 0.67188-1.9844 0.66406-3.0312-0.078125-22.254-7.1328-43.926-20.168-61.961-13.031-18.039-31.391-31.539-52.496-38.602-13.758-31.574-42.133-54.387-75.922-61.047 0.14844-0.66797-109.74-9.5469-170.41 16.574-0.011719 0.10547 0.015625 0.21094 0.074219 0.29688-15.93 11.098-28.477 26.387-36.258 44.176-33.125 10.957-58.727 37.527-68.449 71.035-3.375 1.207-5.3906 4.6719-4.7656 8.2031 0.62109 3.5312 3.6953 6.1016 7.2812 6.0781z"/>
  <path d="m215.71 340.78 54.152-3.1875c0.11719 0.80469 0.24609 1.6875 0.37109 2.5742 26.129-9.3984 69.891-19.016 141.24-20.926h-0.003906c-1.7656-16.344-10.902-30.984-24.805-39.75-1.6562-1.0625-2.8203-2.7422-3.2383-4.6641s-0.050781-3.9336 1.0195-5.5859c1.0391-1.6562 2.6953-2.832 4.6055-3.2617 1.9062-0.43359 3.9102-0.085937 5.5625 0.96094 18.051 11.453 29.754 30.652 31.668 51.945 23.855-0.28906 19.707-6.4961 19.707-6.4961-0.14844-1.3242-0.37109-2.5742-0.59766-3.8906l23.773-6.5859v-0.003906c3.9219-1.0781 6.2383-5.125 5.1797-9.0547-1.1133-3.9297-5.1797-6.2383-9.125-5.1797l-23.68 6.5117c-0.79297-2.1094-1.7305-4.2031-2.6719-6.2969l47.168-26.582c3.5-2.0234 4.7305-6.4805 2.7578-10.012-1.9727-3.5312-6.4141-4.8281-9.9727-2.9062l-47.277 26.641v-0.003906c-2.6289-3.8516-5.5195-7.5195-8.6484-10.98l16.492-18.242v0.003907c2.75-3.0312 2.5234-7.7109-0.50781-10.461-3.0273-2.7461-7.7109-2.5195-10.457 0.50781l-16.559 18.32h-0.003906c-3.0273-2.3086-6.1992-4.4219-9.4922-6.332l23.051-49.062c1.6016-3.6797-0.019531-7.9648-3.6602-9.6602-3.6367-1.6953-7.9609-0.18359-9.75 3.4102l-23.059 49.02c-3.2578-1.2266-6.5859-2.2695-9.9648-3.1211l3.7578-24.234c0.40625-3.9062-2.3125-7.4531-6.1914-8.0703-3.8828-0.62109-7.5703 1.8984-8.4023 5.7383l-3.8242 24.418c-1.4141-0.13281-2.8281-0.19922-4.2383-0.26562l-3.1875-54.07-0.003907 0.003906c-0.23828-4.0859-3.7461-7.207-7.832-6.9688-4.0859 0.23828-7.207 3.7461-6.9648 7.832l3.1836 54.078-3.8867 0.67188-6.5195-23.781c-1.0938-3.9492-5.1758-6.2617-9.125-5.1719-3.9492 1.0898-6.2617 5.1758-5.1719 9.125l6.5859 23.68c-2.1758 0.79297-4.2695 1.7305-6.2891 2.6641l-26.641-47.277c-0.87891-1.8594-2.4961-3.2695-4.457-3.8867-1.9609-0.62109-4.0898-0.39844-5.8789 0.61719-1.7891 1.0156-3.0781 2.7266-3.5508 4.7305-0.47266 2-0.09375 4.1094 1.0469 5.8203l26.578 47.285 0.003906-0.003906c-3.8594 2.5898-7.5078 5.4805-10.906 8.6445l-18.301-16.457c-3.0625-2.3555-7.4219-1.957-10.008 0.91016-2.5859 2.8711-2.5273 7.2461 0.12891 10.047l18.312 16.531c-2.332 3.0312-4.4688 6.2031-6.4062 9.5039l-49.016-23.059c-1.7891-1.0391-3.9297-1.2852-5.9062-0.67188-1.9766 0.61328-3.6055 2.0234-4.4961 3.8906-0.88672 1.8672-0.95312 4.0234-0.17969 5.9414 0.77344 1.9219 2.3125 3.4297 4.2461 4.1602l49.105 23.125c-1.2969 3.2383-2.3398 6.5703-3.1211 9.9727l-24.316-3.832c-4.0508-0.64062-7.8516 2.1211-8.4961 6.1719-0.64063 4.0469 2.1211 7.8516 6.1719 8.4922l24.418 3.8242c-0.066406 1.4141-0.20703 2.7539-0.19141 4.2383l-54.145 3.1875v0.007812c-4.0859 0.23828-7.2031 3.7461-6.9648 7.832 0.23828 4.0859 3.7461 7.2031 7.832 6.9648z"/>
 </g>
</svg>
