<?xml version="1.0" encoding="UTF-8"?>
<svg width="752pt" height="752pt" version="1.1" viewBox="0 0 752 752" xmlns="http://www.w3.org/2000/svg">
 <path d="m470.64 373.5c21.203 0 38.395 17.195 38.395 38.398 0 21.203-17.188 38.395-38.395 38.395h-280.69c-19.84 0-35.926-16.082-35.926-35.922s16.086-35.922 35.926-35.922c1.1172 0 2.2266 0.050781 3.3164 0.15234 2.0312-23.023 19.758-41.543 42.414-44.781 12.176-20.008 34.188-33.371 59.324-33.371 37.727 0 68.43 30.121 69.367 67.625 9.7383 0.76562 18.348 5.5547 24.164 12.707 5.8672-4.5625 13.238-7.2812 21.25-7.2812 12.418 0 23.301 6.5273 29.422 16.34 6.9453-9.8828 18.438-16.34 31.43-16.34zm-87.629 109.92c-9.8945-9.3633 4.3398-24.414 14.234-15.051l51.254 48.484c9.8945 9.3633-4.3398 24.41-14.234 15.051zm-57.301 0c-9.9023-9.3633 4.3398-24.414 14.234-15.051l51.246 48.484c9.9023 9.3633-4.3359 24.41-14.234 15.051zm-57.301-0.65625c-9.9023-9.3633 4.3359-24.41 14.23-15.047l51.254 48.484c9.8945 9.3633-4.3398 24.41-14.234 15.047l-51.246-48.484zm-57.305 0c-9.8945-9.3633 4.3398-24.41 14.234-15.047l51.254 48.484c9.8945 9.3633-4.3398 24.41-14.234 15.047zm292.63-115.77h58.316c19.84 0 35.926-16.082 35.926-35.922s-16.086-35.922-35.926-35.922c-1.1172 0-2.2266 0.054688-3.3164 0.15625-2.0312-23.027-19.758-41.547-42.414-44.789-12.176-20.008-34.188-33.371-59.324-33.371-37.727 0-68.43 30.121-69.367 67.625-9.7383 0.76562-18.348 5.5547-24.164 12.707-5.8672-4.5625-13.238-7.2812-21.25-7.2812-3.3672 0-6.6211 0.48047-9.6992 1.375 24.555 11.797 42.75 34.809 47.836 62.484 3.7383 1.4375 7.293 3.3125 10.605 5.5664 5.957-2.3086 12.332-3.5117 18.828-3.5117 10.867 0 21.238 3.3711 29.848 9.4023 9.043-6.0508 19.789-9.4023 31.004-9.4023 12.391 0 23.84 4.043 33.098 10.879z" fill-rule="evenodd"/>
</svg>
