<?xml version="1.0" encoding="UTF-8"?>
<svg width="752pt" height="752pt" version="1.1" viewBox="0 0 752 752" xmlns="http://www.w3.org/2000/svg">
 <g>
  <path d="m502.57 322.01c9.8555-7.5703 15.57-19.344 15.418-31.773-0.14844-12.43-6.1484-24.062-16.184-31.391-10.039-7.332-22.945-9.5039-34.828-5.8672-11.887 3.6406-21.363 12.664-25.578 24.359 26.672 3.4961 49.727 20.332 61.172 44.672z"/>
  <path d="m478.61 243.32c1.0469 0 2.0508-0.41797 2.793-1.1562 0.73828-0.74219 1.1562-1.7422 1.1562-2.7891v-23.68c0-2.1797-1.7695-3.9492-3.9492-3.9492s-3.9453 1.7695-3.9453 3.9492v23.68c0 1.0469 0.41406 2.0469 1.1562 2.7891 0.73828 0.73828 1.7422 1.1562 2.7891 1.1562z"/>
  <path d="m525.97 290.68c0 1.043 0.41406 2.0469 1.1562 2.7891 0.73828 0.73828 1.7422 1.1562 2.7891 1.1562h23.68c2.1797 0 3.9453-1.7656 3.9453-3.9453 0-2.1797-1.7656-3.9492-3.9453-3.9492h-23.68c-2.1797 0-3.9453 1.7695-3.9453 3.9492z"/>
  <path d="m517.68 257.17 16.734-16.734c0.83594-0.71484 1.3359-1.7461 1.375-2.8438 0.042969-1.0977-0.375-2.1641-1.1523-2.9414-0.77734-0.77734-1.8438-1.1953-2.9414-1.1562-1.0977 0.042968-2.1289 0.54297-2.8438 1.3789l-16.734 16.734c-1.3398 1.5625-1.25 3.8984 0.20703 5.3555 1.457 1.457 3.7891 1.5469 5.3555 0.20703z"/>
  <path d="m439.54 257.17c1.5664 1.3398 3.9023 1.25 5.3594-0.20703 1.457-1.457 1.5469-3.793 0.20703-5.3555l-16.734-16.734c-1.5664-1.3398-3.8984-1.25-5.3555 0.20703-1.4609 1.457-1.5508 3.793-0.20703 5.3555z"/>
  <path d="m512.12 324.14c-1.5312 1.5391-1.5312 4.0234 0 5.5625l16.734 16.734c1.5625 1.3398 3.8984 1.25 5.3555-0.20703s1.5469-3.793 0.20703-5.3555l-16.734-16.734c-1.5391-1.5312-4.0234-1.5312-5.5625 0z"/>
  <path d="m506.23 439.66c-3.332 2.9453-7.4414 4.875-11.836 5.5625-1.3047 0.23828-2.625 0.35547-3.9492 0.35547h-122.34c-2.1797 0-3.9492 1.7656-3.9492 3.9453 0 2.1797 1.7695 3.9492 3.9492 3.9492h122.34c10.832 0.027344 20.922-5.4961 26.73-14.633 5.8125-9.1406 6.5312-20.621 1.9102-30.418-4.625-9.793-13.945-16.535-24.691-17.859-1.3125-0.15625-2.6289-0.23828-3.9492-0.23438-4.543 0.007813-8.9414 1.582-12.457 4.457-3.5156 2.875-5.9336 6.8789-6.8398 11.328-0.19922 0.85547-0.31641 1.7266-0.35547 2.6055-0.039063 0.44531-0.039063 0.89453 0 1.3398 0 5.2344 2.0781 10.254 5.7773 13.953 3.7031 3.7031 8.7227 5.7812 13.953 5.7812 1.3281 0.007812 2.6523-0.125 3.9492-0.39453 1.5508-0.30469 3.0508-0.82422 4.457-1.5391 1.3711-0.65234 2.2461-2.0352 2.25-3.5508 0-1.0469-0.41406-2.0508-1.1562-2.793-0.73828-0.73828-1.7422-1.1562-2.7891-1.1562-0.54688 0.007813-1.082 0.12891-1.5781 0.35547-0.38281 0.19531-0.78125 0.36719-1.1836 0.51172-1.6758 0.62109-3.4766 0.83594-5.25 0.63281-4.9766-0.87109-8.9922-4.5508-10.301-9.4336-0.42578-2.0938-0.26172-4.2656 0.47266-6.2734 1.5078-4.3359 5.3828-7.4102 9.9453-7.8945h1.1836c1.3242 0 2.6445 0.11719 3.9492 0.35547 5.5117 0.93359 10.52 3.7852 14.129 8.0547 3.6133 4.2695 5.5977 9.6797 5.6016 15.27 0 6.7773-2.9023 13.227-7.9727 17.723z"/>
  <path d="m562.63 485.04c-5.7656-5.0859-13.191-7.8906-20.879-7.8906h-173.64c-2.1797 0-3.9492 1.7656-3.9492 3.9453 0 2.1797 1.7695 3.9453 3.9492 3.9453h173.64c1.3242 0 2.6445 0.11719 3.9492 0.35547 4.3945 0.6875 8.5039 2.6172 11.836 5.5664 4.4883 3.9766 7.3008 9.5078 7.8711 15.477 0.56641 5.9727-1.1523 11.934-4.8086 16.688-3.6602 4.75-8.9844 7.9375-14.898 8.918-1.3047 0.23828-2.625 0.35938-3.9492 0.35547h-1.1836c-3.6719-0.37109-6.9609-2.4297-8.8945-5.5742-1.9336-3.1406-2.293-7.0039-0.97266-10.449 1.2852-3.5508 4.2383-6.2383 7.8945-7.1836 2.3242-0.59375 4.7734-0.47266 7.0234 0.35547 0.40625 0.14844 0.80078 0.32031 1.1836 0.51172 0.49609 0.22656 1.0352 0.34766 1.582 0.35547 1.043 0 2.0469-0.41406 2.7891-1.1562 0.73828-0.73828 1.1562-1.7422 1.1562-2.7891-0.003906-1.5195-0.87891-2.8984-2.25-3.5508-1.4062-0.71875-2.9102-1.2344-4.4609-1.5391-1.2969-0.27344-2.6211-0.40625-3.9453-0.39453-5.2344 0-10.254 2.0781-13.953 5.7773-3.6992 3.7031-5.7812 8.7227-5.7812 13.953-0.011718 0.4375 0.015625 0.87109 0.082032 1.3047 0.33984 4.9961 2.5664 9.6758 6.2305 13.094 3.6641 3.4141 8.4922 5.3086 13.5 5.2969 1.3203 0 2.6367-0.078124 3.9492-0.23828 8.082-1.0156 15.461-5.1211 20.59-11.449 5.1289-6.332 7.6094-14.398 6.9297-22.52-0.68359-8.1172-4.4766-15.66-10.59-21.047z"/>
  <path d="m368.11 469.26h149.96c7.6875 0 15.113-2.8086 20.879-7.8945 1.9219-1.6953 3.6289-3.6172 5.0898-5.7227 0.80078-1.2148 0.86719-2.7695 0.17578-4.0508-0.69531-1.2773-2.0352-2.0703-3.4883-2.0664-1.3438 0.003906-2.5938 0.6875-3.3164 1.8164-1.0625 1.457-2.293 2.7812-3.6719 3.9453-3.332 2.9492-7.4414 4.8789-11.84 5.5664-1.3008 0.23828-2.6211 0.35547-3.9453 0.35547h-149.85c-2.1797 0-3.9492 1.7656-3.9492 3.9453 0 2.1797 1.7695 3.9453 3.9492 3.9453z"/>
  <path d="m498.34 500.83c0 5.2617-7.8945 5.2617-7.8945 0s7.8945-5.2617 7.8945 0"/>
  <path d="m482.56 516.62c0 5.2617-7.8945 5.2617-7.8945 0 0-5.2656 7.8945-5.2656 7.8945 0"/>
  <path d="m569.38 437.68c0 5.2656-7.8906 5.2656-7.8906 0 0-5.2617 7.8906-5.2617 7.8906 0"/>
  <path d="m553.59 429.79c0 5.2617-7.8906 5.2617-7.8906 0s7.8906-5.2617 7.8906 0"/>
  <path d="m561.49 453.47c0 5.2617-7.8945 5.2617-7.8945 0 0-5.2617 7.8945-5.2617 7.8945 0"/>
  <path d="m436.89 397.25c5.2148 0.72266 4.125 8.543-1.0859 7.8164-5.2109-0.72656-4.125-8.543 1.0859-7.8164"/>
  <path d="m450.34 415.02c5.2109 0.72656 4.1211 8.543-1.0898 7.8164-5.2109-0.72266-4.125-8.5391 1.0898-7.8164"/>
  <path d="m434.64 498.78c2.75 4.4844-3.9805 8.6094-6.7305 4.1211-2.7461-4.4883 3.9844-8.6094 6.7305-4.1211"/>
  <path d="m516.42 374.39c2.75 4.4883-3.9805 8.6094-6.7305 4.125-2.7461-4.4883 3.9844-8.6094 6.7305-4.125"/>
  <path d="m490.45 406.11h-0.39453c-1.4805 0.15625-2.7461 1.1328-3.2734 2.5273-0.20312 0.70703-0.20312 1.4609 0 2.168 0.62109 1.4688 1.8438 2.6055 3.3516 3.1172h0.31641c0.36719 0.066407 0.74219 0.066407 1.1055 0h0.47266c4.1719-2.0156 9.1406-1.4141 12.711 1.5391-2.2266-4.6133-6.5273-7.8828-11.566-8.8008-0.88672-0.26562-1.7969-0.45312-2.7227-0.55078z"/>
  <path d="m544.16 467.29c-0.78906 0.71094-1.6172 1.3438-2.4453 1.9727h-0.003906c1.957 0.011719 3.9102 0.17188 5.8398 0.47266 2.1445-1.5781 4.1875-3.293 6.1172-5.1289-1.7031-0.56641-3.2539-1.5117-4.5391-2.7617-1.4805 1.9648-3.1484 3.7891-4.9688 5.4453z"/>
  <path d="m510.18 355.8h-7.8945c0.003907-23.898-12.004-46.195-31.961-59.34-19.953-13.145-45.184-15.375-67.137-5.9375-14.656-25.188-40.516-41.809-69.52-44.68-29-2.8672-57.617 8.3633-76.926 30.195-19.309 21.828-26.961 51.602-20.57 80.035-15.695 1.4102-30.297 8.6367-40.938 20.262-10.637 11.625-16.547 26.809-16.562 42.566 0 16.75 6.6523 32.809 18.496 44.652 11.84 11.84 27.902 18.492 44.648 18.492h114.45v-0.98828 0.003906c0.015625-2.9219 1.1133-5.7344 3.0781-7.8945-4.0195-4.4922-4.0195-11.293 0-15.785-3.1055-3.4727-3.8867-8.4414-1.9961-12.699 1.8906-4.2539 6.0977-7.0078 10.758-7.0352h122.34c-7.3242 0-14.352-2.9102-19.535-8.0898-5.1797-5.1797-8.0898-12.207-8.0898-19.535-0.042969-0.70703-0.042969-1.4219 0-2.1289 0.082031-1.2383 0.26562-2.4648 0.55469-3.6719 1.3359-6.1797 4.7539-11.719 9.6797-15.684 4.9297-3.9648 11.066-6.1172 17.391-6.1016 1.6367-0.007813 3.2695 0.085937 4.8945 0.27734 3.4727 0.45312 6.8711 1.3711 10.102 2.7227-4.3672-3.7344-5.418-10.066-2.5-15.016 2.9219-4.9492 8.9727-7.0859 14.355-5.0664 5.3789 2.0156 8.5352 7.6055 7.4805 13.254-1.0547 5.6484-6.0117 9.7266-11.758 9.668-0.875-0.007813-1.75-0.11328-2.6055-0.3125 4.2734 2.5078 8.0352 5.8047 11.09 9.707-2.6641-5.5625-0.61328-12.242 4.7148-15.348 5.332-3.1055 12.152-1.5977 15.68 3.4648 3.5234 5.0625 2.5703 11.984-2.1914 15.906-4.7656 3.918-11.738 3.5273-16.031-0.90625 0.27734 0.47266 0.63281 0.90625 0.90625 1.3828 4.5547 7.8906 6.2383 17.117 4.7617 26.109-1.4727 8.9922-6.0156 17.195-12.852 23.223-0.78906 0.71094-1.6172 1.3438-2.4453 1.9727h3.9453c0.84766-0.003906 1.6914-0.082031 2.5273-0.23828 2.9258-0.46875 5.6602-1.7578 7.8906-3.7109 0.91016-0.77734 1.7188-1.668 2.4102-2.6445 2.2227-3.2461 5.8906-5.2031 9.8242-5.2461 3.1602 0 6.1875 1.2656 8.4062 3.5117 1.4766-1.4766 3.3125-2.5391 5.3281-3.0781-0.15625-0.44141-0.28906-0.88672-0.39453-1.3438-4.5586 1.8516-9.7891 0.68359-13.133-2.9258s-4.1055-8.9102-1.9141-13.316c2.1875-4.4062 6.875-6.9961 11.773-6.5117 4.8945 0.48828 8.9805 3.9531 10.258 8.707 3.8477-1.5781 8.2461-0.97656 11.523 1.5781 0.48438-3.0938 0.73438-6.2227 0.75-9.3555-0.007813-16.727-6.6562-32.766-18.48-44.594-11.82-11.832-27.855-18.488-44.582-18.508zm-48.621 64.801c-0.81641 5.8984-5.8828 10.277-11.84 10.223h-1.6562c-4.0273-0.58594-7.4688-3.1953-9.1211-6.9141-1.6484-3.7188-1.2773-8.0234 0.98828-11.398-1.1953 0.40625-2.4453 0.61719-3.707 0.62891h-1.6211c-6.5391-0.44531-11.477-6.1094-11.027-12.648 0.44531-6.5391 6.1094-11.477 12.648-11.027h1.6562c3.9805 0.58203 7.3945 3.1445 9.0625 6.8086 1.668 3.6602 1.3594 7.918-0.8125 11.305 1.1914-0.40625 2.4453-0.62109 3.707-0.63281h1.6602c3.1133 0.42969 5.9297 2.082 7.8242 4.5938 1.8984 2.5117 2.7148 5.6719 2.2773 8.7852z"/>
  <path d="m535.54 390.47c2.7461 4.4844-3.9844 8.6094-6.7305 4.1211-2.75-4.4883 3.9805-8.6094 6.7305-4.1211"/>
 </g>
</svg>
