<?xml version="1.0" encoding="UTF-8"?>
<svg width="752pt" height="752pt" version="1.1" viewBox="0 0 752 752" xmlns="http://www.w3.org/2000/svg">
 <g>
  <path d="m497.79 318.74c4.5898 1.6367 9.3398 2.7734 14.168 3.3945 22.477 2.8867 44.949-5.3633 60.227-22.102 1.2461-1.3789 1.4844-3.3945 0.59766-5.0273-0.88672-1.6328-2.7109-2.5312-4.5469-2.2344-8.1094 1.7188-16.457 2-24.664 0.82812-20.863-3.0312-39.238-15.344-49.969-33.488-10.734-18.148-12.676-40.18-5.2812-59.926 0.59766-1.793-0.023437-3.7656-1.5391-4.8945-1.5156-1.1328-3.582-1.1602-5.1328-0.078124-13.961 9.5234-24 23.781-28.258 40.137 25.371 20.73 41.363 50.77 44.398 83.391z"/>
  <path d="m269.45 438.32c1.4883-1.4375 1.6133-3.7812 0.28516-5.3672-1.3281-1.5898-3.6562-1.8828-5.3359-0.67188-0.27734 0.23828-26.125 22.457-0.75 60.461 10.539 15.785 8.8008 29.203 5.5234 37.688v0.003907c-3.0664 9.0156-10.043 16.164-18.98 19.453-2.1133 0.53516-3.3945 2.6836-2.8633 4.7969 0.53516 2.1133 2.6836 3.3945 4.7969 2.8594 9.9844-2.4844 19.734-12.234 24.43-24.23 5.5117-15.086 3.1445-31.93-6.3164-44.91-21.152-31.969-1.4609-49.254-0.78906-50.082z"/>
  <path d="m344.43 438.32c1.4883-1.4375 1.6094-3.7812 0.28125-5.3672-1.3242-1.5898-3.6562-1.8828-5.332-0.67188-0.27734 0.23828-26.125 22.457-0.75 60.461 10.539 15.785 8.8008 29.203 5.5234 37.688v0.003907c-3.0664 9.0156-10.043 16.164-18.98 19.453-2.1172 0.53516-3.3984 2.6836-2.8633 4.7969 0.53516 2.1133 2.6797 3.3945 4.7969 2.8594 9.9844-2.4844 19.734-12.234 24.43-24.23h-0.003906c5.5156-15.086 3.1445-31.93-6.3125-44.91-21.152-31.969-1.4609-49.254-0.78906-50.082z"/>
  <path d="m419.41 438.32c1.4883-1.4375 1.6094-3.7812 0.28125-5.3672-1.3281-1.5898-3.6562-1.8828-5.332-0.67188-0.27734 0.23828-26.125 22.457-0.75 60.461 10.539 15.785 8.8008 29.203 5.5234 37.688v0.003907c-3.0703 9.0156-10.043 16.164-18.984 19.453-2.1133 0.53516-3.3945 2.6836-2.8594 4.7969 0.53516 2.1133 2.6797 3.3945 4.793 2.8594 9.9844-2.4844 19.734-12.234 24.43-24.23 5.5117-15.086 3.1445-31.93-6.3125-44.91-21.152-31.969-1.4609-49.254-0.78906-50.082z"/>
  <path d="m498.34 330.14h-3.9453c0-42.301-22.566-81.387-59.199-102.54-36.633-21.148-81.766-21.148-118.39 0-36.633 21.148-59.199 60.234-59.199 102.54h-3.9453c-19.887 0-38.961 7.8984-53.023 21.961s-21.961 33.133-21.961 53.02c0 19.711 7.7578 38.629 21.598 52.664 13.84 14.031 32.652 22.051 52.359 22.32-12.512-31.887 9.1562-50.594 9.3945-50.832 3.3438-2.8008 8.3281-2.3555 11.129 0.98828 2.8008 3.3477 2.3594 8.3281-0.98828 11.129-0.67188 0.55078-15.43 13.695-2.0898 38.754h57.539c-12.551-31.887 9.1172-50.633 9.3516-50.871 3.3477-2.8008 8.3281-2.3555 11.129 0.98828 2.8008 3.3477 2.3594 8.3281-0.98438 11.129-0.67188 0.55078-15.43 13.695-2.0898 38.754h57.578c-12.551-31.887 9.1172-50.633 9.3945-50.871h-0.003906c3.3477-2.8008 8.3281-2.3555 11.129 0.98828 2.8008 3.3477 2.3594 8.3281-0.98438 11.129-0.67188 0.55078-15.43 13.695-2.1328 38.754h57.582c-12.551-31.887 9.1172-50.633 9.3945-50.871h-0.003907c3.3477-2.8008 8.3281-2.3555 11.129 0.98828 2.8008 3.3477 2.3594 8.3281-0.98438 11.129-0.67188 0.55078-15.43 13.695-2.1328 38.754h3.3555c19.887 0 38.957-7.8984 53.02-21.961s21.965-33.133 21.965-53.02c0.007813-19.895-7.8867-38.977-21.949-53.047-14.062-14.074-33.141-21.977-53.035-21.977z"/>
  <path d="m494.4 438.32c1.4844-1.4375 1.6094-3.7812 0.28125-5.3672-1.3281-1.5898-3.6562-1.8828-5.3359-0.67188-0.27734 0.23828-26.125 22.457-0.75 60.461 10.539 15.785 8.8008 29.203 5.5234 37.688l0.003906 0.003907c-3.0703 9.0156-10.047 16.164-18.984 19.453-2.1133 0.53516-3.3945 2.6836-2.8594 4.7969 0.53125 2.1133 2.6797 3.3945 4.793 2.8594 9.9844-2.4844 19.734-12.234 24.43-24.23 5.5117-15.086 3.1445-31.93-6.3125-44.91-21.156-31.969-1.4609-49.254-0.78906-50.082z"/>
 </g>
</svg>
