<?xml version="1.0" encoding="UTF-8"?>
<svg width="752pt" height="752pt" version="1.1" viewBox="0 0 752 752" xmlns="http://www.w3.org/2000/svg">
 <path d="m468.35 411.63v0.24219h-194.17c-26.152 0-47.359-21.207-47.359-47.359 0-26.156 21.207-47.359 47.359-47.359 3.3086 0 6.5391 0.34766 9.6602 0.98828 1.9766-45.332 39.242-81.5 85.055-81.5 36.082 0 66.855 22.453 79.297 54.117 4.9375-1.2734 10.086-2.0234 15.418-2.0234 34.004 0 61.566 27.562 61.566 61.566 0 32.406-25.047 58.902-56.828 61.328zm-193.79 25.395 1.5312-2.8906 5.3008 3.3359 0.41016-7.4453 2.6523 1.6719-0.40625 7.4453 5.3008 3.3398-1.5312 2.8906-5.3008-3.3398-5.7148 4.1094-2.6523-1.6719 5.7109-4.1094zm2.2422 16.352 5.7148 4.1172 5.3008-3.3398 1.5312 2.8906-5.3008 3.3359 0.40625 7.4492-2.6523 1.6719-0.41016-7.4492-5.3008 3.3359-1.5312-2.8828 5.3008-3.3398-5.7109-4.1094zm19.531 8.0625h3.0586v6.6719l6.125 3.3398v3.3359l-6.125-3.3359v6.668h-3.0586v-6.668l-6.125 3.3359v-3.3359l6.125-3.3398zm-9.1875-11.68c0-6.4492 4.7969-11.684 10.719-11.684 5.918 0 10.719 5.2266 10.719 11.684 0 6.4453-4.7969 11.68-10.719 11.68s-10.719-5.2305-10.719-11.68zm10.715 8.1797c4.1445 0 7.5-3.6602 7.5-8.1797s-3.3594-8.1797-7.5-8.1797c-4.1445 0-7.5 3.6602-7.5 8.1797s3.3555 8.1797 7.5 8.1797zm-1.5273-26.531-6.125-3.3398v-3.3359l6.125 3.3398v-6.6719h3.0586v6.6719l6.125-3.3398v3.3398l-6.125 3.3359v6.668h-3.0625zm22.59 14.734-5.7109-4.1094-5.3047 3.3398-1.5312-2.8906 5.3047-3.3398-0.41016-7.4453 2.6523-1.6719 0.41016 7.4453 5.3047-3.3359 1.5312 2.8906-5.3047 3.3359 5.7109 4.1094zm-11.016 8.0117 5.3047 3.3398 5.7109-4.1172 2.6523 1.6719-5.7109 4.1094 5.3047 3.3398-1.5312 2.8828-5.3047-3.3359-0.41016 7.4492-2.6523-1.6719 0.41016-7.4492-5.3047-3.3359zm28.445-2.9688 2.6055-4.5078 9.0234 5.2109 0.69531-11.625 4.5117 2.6055-0.69531 11.625 9.0234 5.2148-2.6094 4.5078-9.0234-5.2109-9.7188 6.418-4.5117-2.6094 9.7227-6.418zm3.8203 25.539 9.7188 6.418 9.0234-5.2148 2.6094 4.5078-9.0234 5.2148 0.69531 11.625-4.5117 2.6055-0.69531-11.625-9.0234 5.2109-2.6055-4.5078 9.0234-5.2109-9.7227-6.418zm33.227 12.578h5.207v10.418l10.418 5.2148v5.2109l-10.418-5.2109v10.414h-5.2109v-10.414l-10.418 5.2109v-5.2109l10.418-5.2148zm-15.629-18.23c0-10.074 8.1641-18.234 18.234-18.234 10.074 0 18.238 8.1602 18.238 18.234 0 10.066-8.1641 18.234-18.238 18.234-10.07-0.003906-18.234-8.168-18.234-18.234zm18.23 12.766c7.0469 0 12.762-5.7148 12.762-12.762 0.003906-7.0469-5.7148-12.77-12.762-12.77s-12.762 5.7148-12.762 12.762c0 7.0508 5.7148 12.77 12.762 12.77zm-2.6016-41.422-10.418-5.2109v-5.2109l10.418 5.2109v-10.414h5.2109v10.414l10.418-5.2109v5.2109l-10.418 5.2109v10.422h-5.2148zm38.438 23.004-9.7227-6.418-9.0234 5.2109-2.6055-4.5078 9.0234-5.2148-0.69531-11.625 4.5078-2.6055 0.69531 11.625 9.0234-5.2109 2.6055 4.5078-9.0234 5.2109 9.7227 6.418zm-18.742 12.508 9.0234 5.2148 9.7227-6.418 4.5078 2.6055-9.7227 6.418 9.0234 5.2109-2.6055 4.5078-9.0234-5.2109-0.69531 11.625-4.5078-2.6055 0.69531-11.625-9.0234-5.2148zm37.75-45.637 1.5312-2.8906 5.3008 3.3359 0.41016-7.4453 2.6523 1.6719-0.40625 7.4453 5.3008 3.3398-1.5312 2.8906-5.3008-3.3398-5.7148 4.1094-2.6523-1.6719 5.7109-4.1094zm2.2383 16.352 5.7148 4.1172 5.3008-3.3398 1.5312 2.8906-5.3008 3.3359 0.40625 7.4492-2.6523 1.6719-0.41016-7.4492-5.3008 3.3359-1.5312-2.8828 5.3008-3.3398-5.7109-4.1094zm19.531 8.0586h3.0586v6.6719l6.125 3.3398v3.3359l-6.125-3.3359v6.668h-3.0586v-6.668l-6.125 3.3359v-3.3359l6.125-3.3398zm-9.1875-11.676c0-6.4492 4.7969-11.684 10.719-11.684 5.918 0 10.719 5.2266 10.719 11.684 0 6.4453-4.7969 11.68-10.719 11.68-5.9219-0.003906-10.719-5.2305-10.719-11.68zm10.715 8.1758c4.1445 0 7.5-3.6602 7.5-8.1797 0-4.5195-3.3594-8.1797-7.5-8.1797-4.1445 0-7.5 3.6602-7.5 8.1797 0 4.5195 3.3594 8.1797 7.5 8.1797zm-1.5273-26.527-6.125-3.3398v-3.3398l6.125 3.3398v-6.6719h3.0586v6.6719l6.125-3.3398v3.3398l-6.125 3.3398v6.668h-3.0625zm22.59 14.73-5.7109-4.1094-5.3047 3.3398-1.5312-2.8906 5.3047-3.3398-0.41016-7.4453 2.6523-1.6719 0.41016 7.4453 5.3047-3.3359 1.5312 2.8906-5.3047 3.3359 5.7109 4.1094zm-11.016 8.0156 5.3047 3.3398 5.7109-4.1172 2.6523 1.6719-5.7109 4.1094 5.3047 3.3398-1.5312 2.8828-5.3047-3.3359-0.41016 7.4492-2.6523-1.6719 0.41016-7.4492-5.3047-3.3359z" fill-rule="evenodd"/>
</svg>
