<?xml version="1.0" encoding="UTF-8"?>
<svg width="752pt" height="752pt" version="1.1" viewBox="0 0 752 752" xmlns="http://www.w3.org/2000/svg">
 <g>
  <path d="m270.63 461.02 26.047-17.391c2.0898-1.375 3.3438-3.7109 3.332-6.2148-0.015624-2.4727-1.2656-4.7812-3.332-6.1406l-44.398-29.156 4.293-2.8867v0.003906c2.0781-1.3711 3.3281-3.6914 3.3281-6.1797 0-2.4883-1.25-4.8086-3.3281-6.1797l-65.562-42.105c-2.4531-1.5938-5.6133-1.5938-8.0664 0-2.4258 1.625-3.6719 4.5234-3.1797 7.4023l14.133 76.438c0.44531 2.4414 2.0859 4.5 4.3672 5.4766 2.3047 0.98047 4.9492 0.73047 7.0273-0.66797l4.293-2.8125 9.8398 51.797v0.003906c0.46094 2.457 2.1328 4.5156 4.4414 5.4766 0.91406 0.38672 1.8945 0.58984 2.8867 0.58984 1.4492-0.011718 2.8672-0.44922 4.0703-1.2578l27.527-17.98 32.855 49.207h-0.003906c1.3633 2.0664 3.668 3.3164 6.1445 3.332 1.4492-0.011719 2.8633-0.44922 4.0703-1.2578 1.6406-1.0859 2.7852-2.7852 3.1719-4.7148 0.39062-1.9297-0.007813-3.9336-1.1016-5.5742z"/>
  <path d="m581.79 369.71c-2.5703-1.418-5.7344-1.1875-8.0664 0.59375l-61.418 47.434v-0.003906c-1.9609 1.5391-3.0195 3.957-2.8125 6.4375 0.18359 2.4844 1.6016 4.707 3.7734 5.9219l4.5156 2.4414-41.809 32.781c-1.9492 1.5273-3.0039 3.9297-2.8125 6.3984 0.19531 2.4688 1.6094 4.6797 3.7734 5.8828l28.934 15.984-28.637 51.797c-1.9336 3.5586-0.64844 8.0117 2.8828 9.9922 1.0859 0.61328 2.3086 0.94531 3.5547 0.96094 2.7109 0.007813 5.2109-1.4688 6.5117-3.8477l28.637-51.797 27.453 14.801v-0.003906c1.082 0.61719 2.3047 0.94531 3.5508 0.96484 1.2148-0.007813 2.4102-0.3125 3.4766-0.89062 2.1914-1.1484 3.6641-3.3125 3.9219-5.7695l5.4766-52.391 4.5156 2.4414c2.1914 1.1836 4.8359 1.1836 7.0273 0 2.2109-1.1602 3.6875-3.3594 3.9219-5.8438l7.3984-77.18h0.003906c0.25-2.9062-1.2266-5.6875-3.7734-7.1055z"/>
  <path d="m474.12 426.98c0-0.51953 0.51953-1.0352 0.8125-1.4805 0.035156-0.14453 0.035156-0.29688 0-0.44141 0.44141-0.79688 0.78906-1.6406 1.0391-2.5156 0.027344-0.27344 0.027344-0.54297 0-0.81641 0.019532-0.32031 0.019532-0.64062 0-0.96094v-1.0352c0.035156-0.26953 0.035156-0.54297 0-0.81641 0.035156-0.36719 0.035156-0.73828 0-1.1094v-0.66406c0.035156-0.51953 0.035156-1.0391 0-1.5547 0.17969-6.2148-1.6641-12.316-5.2539-17.391-15.602 6.1367-31.996 10.023-48.691 11.543h-0.88672c-4.0859 0.24609-7.5977-2.8672-7.8438-6.9531-0.24609-4.0859 2.8672-7.5977 6.9531-7.8438 12.867-1.2109 25.582-3.6875 37.961-7.3984l6.0664-2.293c1.7031-0.73828 3.3281-1.4805 4.8086-2.293h0.73828c1.332-0.73828 2.5898-1.4805 3.7734-2.293h0.66406l0.007812-0.003907c1.1055-0.78125 2.168-1.6211 3.1836-2.5156h0.44531-0.003907c0.94141-0.86328 1.8086-1.8047 2.5898-2.8125 0.78516-0.95313 1.457-1.9961 2-3.1094 0.54688-1.082 0.96875-2.2227 1.2578-3.4023 0.29687-1.2109 0.44531-2.4531 0.44141-3.6992-0.76562-8.5859-5.8398-16.191-13.465-20.203 13.688-6.8086 20.645-14.801 20.645-24.051v0.003906c-0.6875-8.2617-5.543-15.598-12.875-19.461-16.352 12.801-45.953 20.496-88.797 22.863h0.37109c-4.0898 0.12109-7.5-3.0898-7.625-7.1758-0.12109-4.0898 3.0938-7.5 7.1797-7.625 34.336-1.9258 59.199-7.3984 73.996-15.836v0.003906c6.5938-3.1211 11.844-8.5039 14.801-15.172-0.03125-0.29297-0.03125-0.59375 0-0.88672 0-0.66406 0.37109-1.332 0.51953-2.0703l-0.003906-0.003906c0.074218-1.1055 0.074218-2.2188 0-3.3281-0.23828-5.168-2.1289-10.125-5.3984-14.133-27.18 8.6328-68.816 12.973-124.91 13.023h-0.003906c-4.0859 0-7.3984-3.3125-7.3984-7.3984 0-4.0898 3.3125-7.4023 7.3984-7.4023 51.797 0 87.688-3.8477 111-9.6211 4.7344-1.1094 9.1016-2.3672 13.172-3.6992 13.984-4.8828 21.312-10.582 23.234-16.281v0.003906c0.34766-1.0781 0.54687-2.1992 0.59375-3.332 0.070312-0.73828 0.070312-1.4805 0-2.2188-27.082 7.3984-74.961 12.137-159.09 12.137-43.684 0.72266-87.363-1.4766-130.75-6.5859-0.15625 0.41016-0.28125 0.82812-0.37109 1.2578 0 0.88672-0.51953 1.7773-0.73828 2.5898-0.30859 1.5352-0.48438 3.0938-0.51953 4.6602 0.007813 1.8164 0.20703 3.6289 0.59375 5.4023 0 0.59375 0.37109 1.1094 0.51953 1.6289 0.35156 1.207 0.77344 2.3906 1.2578 3.5508l0.96094 1.7031c0.59375 1.1016 1.2617 2.1641 1.9961 3.1836l1.2578 1.6289c0.88672 1.0352 1.8516 1.9961 2.8867 3.0352l1.4805 1.332c1.1836 1.0352 2.5156 2.0703 3.9219 3.1094l1.4062 0.96094c1.7773 1.1836 3.6992 2.293 5.6992 3.4023h0.59375l-0.003906-0.003906c5.332 2.6953 10.875 4.9492 16.574 6.7344 24.086 6.6992 49.004 9.9141 74 9.5469 1.9609 0 3.8438 0.77734 5.2305 2.168 1.3867 1.3867 2.168 3.2695 2.168 5.2305s-0.78125 3.8438-2.168 5.2344c-1.3867 1.3867-3.2695 2.1641-5.2305 2.1641-28.168 0.015626-56.152-4.5078-82.879-13.391-1.168 2.7891-1.7969 5.7773-1.8477 8.8047 0.16797 6.7344 3.1445 13.094 8.2109 17.535 1.7109 1.543 3.5156 2.9766 5.4023 4.293l1.1836 0.73828v0.003907c4.8672 3.0742 10.086 5.5586 15.539 7.3984 3.1836 1.1094 6.5859 2.1445 10.137 3.1094l0.003906-0.003906c30.191 6.8945 61.219 9.3867 92.125 7.4023 1.9609 0 3.8438 0.77734 5.2305 2.168 1.3906 1.3867 2.168 3.2695 2.168 5.2305 0 1.9648-0.77734 3.8438-2.168 5.2344-1.3867 1.3867-3.2695 2.1641-5.2305 2.1641-7.3984 0-14.207 0.44531-21.016 0.44531-26.719 0.63281-53.395-2.4805-79.25-9.25v0.8125 0.003906c0.50781 7.0781 4.6953 13.367 11.023 16.574h0.37109c5.7148 3.4023 11.832 6.0859 18.203 7.9922 5.5234 1.6914 11.129 3.0977 16.797 4.2188 14.848 2.8594 29.887 4.6172 44.992 5.25 4.0859 0.10547 7.3164 3.5 7.2148 7.5859-0.10156 4.0859-3.5 7.3164-7.5859 7.2148-16.785-0.6875-33.488-2.7148-49.949-6.0664v1.9258-0.003906c0.050781 5.4219 1.9883 10.652 5.4766 14.801h0.37109c11.914 13.836 40.699 22.863 81.398 25.383l-0.003906-0.003906c4.0898 0.125 7.3008 3.5352 7.1797 7.625-0.12109 4.0859-3.5352 7.3008-7.6211 7.1758h-0.44531c-20.996-0.66406-41.785-4.3789-61.715-11.023-2.8281 4.1562-4.418 9.0312-4.5859 14.059-0.007813 1.418 0.14062 2.832 0.44531 4.2188v1.1836c0.24219 1.0156 0.58984 2.0078 1.0352 2.957l0.44531 1.1094-0.003906 0.003907c0.59375 1.2148 1.2852 2.3789 2.0742 3.4766 1.0195 1.3125 2.1055 2.5703 3.2539 3.7734 1.2188 1.1602 2.5039 2.2461 3.8477 3.2539l0.51953 0.44531c5.8008 4.1055 12.156 7.3672 18.871 9.6953 12.695 4.4258 25.852 7.4062 39.215 8.8789 4.0898 0.24609 7.2031 3.7578 6.957 7.8438-0.24609 4.0859-3.7578 7.1992-7.8438 6.957h-0.88672c-10.359-1.2305-20.621-3.1836-30.711-5.8477 4.1133 12.164 5.1055 25.164 2.8867 37.812-4.2734 18.508-10.09 36.629-17.387 54.164-1.0078 2.293-0.78516 4.9375 0.58984 7.0312 1.375 2.0898 3.7148 3.3438 6.2148 3.332h14.281c1.8008-0.003906 3.5352-0.66016 4.8867-1.8516 2.1445-1.8516 52.465-46.32 66.598-77.031 6.8047-16.387 9.9375-34.07 9.1719-51.797-5.9492 2.1992-12.027 4.0273-18.203 5.4766h-1.7031 0.003907c-3.5078 0.09375-6.5938-2.2852-7.4023-5.6992-0.92578-3.9609 1.5195-7.9297 5.4766-8.8789 7.1016-1.6133 14.059-3.8164 20.793-6.5859 3.6328-1.5664 7.1445-3.3945 10.508-5.4766l2.6641-1.7773c2.793-2.1172 5.2812-4.6055 7.3984-7.3984v-0.44531c0-0.51953 0.73828-1.0352 1.0352-1.5547z"/>
  <path d="m215.5 210.54c40.602 4.3281 81.422 6.2305 122.25 5.6992 115.29 0.22266 178.85-9.5469 178.85-27.305 0-9.1758-9.4727-16.059-56.754-21.605l-0.003906-0.003906c-40.586-4.1914-81.367-6.168-122.17-5.918-40.801-0.25-81.586 1.7266-122.17 5.918-47.211 5.5508-56.754 12.43-56.754 21.605 0 7.3984 12.359 14.059 35.887 18.648 5.9961 1.0391 12.879 2 20.867 2.9609z"/>
 </g>
</svg>
