<?xml version="1.0" encoding="UTF-8"?>
<svg width="752pt" height="752pt" version="1.1" viewBox="0 0 752 752" xmlns="http://www.w3.org/2000/svg">
 <g>
  <path d="m503.18 329.89c-10.969-28.324-38.133-47.082-68.797-47.082-12.129 0-23.855 2.9297-34.418 8.5273 4.2812 5.8203 7.8906 12.16 10.711 18.941 31.512 3.3594 55.801 30.105 55.801 62.113 0 15.617-5.8438 30.594-16.457 42.164-6.418 7.0078-14.254 12.383-22.895 15.848h75.48c0.53516 0 1.0547-0.082032 1.543-0.21484 25.754-2.3164 45.758-24.105 45.758-50.105 0.003906-26.539-20.664-48.34-46.727-50.191z"/>
  <path d="m368.7 412.5c-0.9375-1.8867-2.8711-3.0859-4.9961-3.0859h-22.039l12.023-45.074c0.69141-2.5898-0.53906-5.2891-2.9492-6.4648-0.77734-0.37109-1.6211-0.55469-2.4453-0.55469-1.7109 0-3.375 0.77734-4.457 2.2227l-54.215 72.059c-1.2852 1.6914-1.4805 3.9609-0.53516 5.8438 0.94141 1.8906 2.875 3.082 4.9961 3.082h22.031l-12.016 45.09c-0.6875 2.582 0.54297 5.2812 2.9492 6.4492 0.77734 0.37891 1.6211 0.5625 2.4453 0.5625 1.6992 0 3.375-0.79688 4.457-2.2344l54.219-72.066c1.2695-1.6641 1.4727-3.9336 0.53125-5.8281z"/>
  <path d="m462 372.39c0-30.793-24.129-56.062-54.473-57.898-12.555-33.137-44.203-55.129-79.938-55.129-45.387 0-82.637 35.539-85.363 80.25-22.57 2.6797-40.125 21.949-40.125 45.242 0 25.113 20.43 45.539 45.543 45.539h37.48c0.26953-0.50391 0.5625-1.0078 0.91016-1.4805l54.219-72.066c1.8867-2.5 4.8906-4.0078 8.0273-4.0078 1.5078 0 3.0352 0.35156 4.3945 1.0195 4.3203 2.0898 6.5508 6.9844 5.3086 11.617l-10.52 39.465h16.227c3.832 0 7.2773 2.125 8.9883 5.5664 1.6953 3.4258 1.3359 7.4492-0.96094 10.527l-7.0469 9.3672h42.84c0.5625 0 1.1172-0.089844 1.6445-0.24219 29.73-2.6328 52.844-27.758 52.844-57.77z"/>
 </g>
</svg>
