<?xml version="1.0" encoding="UTF-8"?>
<svg width="752pt" height="752pt" version="1.1" viewBox="0 0 752 752" xmlns="http://www.w3.org/2000/svg">
 <g>
  <path d="m369.37 296.87c3.7422-0.23828 9.9453 12.457 7.9102 16.34l20.223 26-27.613 22.113 5.3984 8.5234 40.113-19.605-9.4727-41.582 46.836-24.293 60.574-12.266 18.469-52.758-12.078 1.8477-22.164 31.113s-50.625 2.8906-51.336 2.793l-19.891-38.785-7.1953-54.082-10.656 1.375-2.4141 59.055 12.738 28.414-31.066 22.543-10.184-28.414-34.996-21.074-5.5391 7.3867 29.504 19.891z"/>
  <path d="m369.37 296.87c3.7422-0.23828 9.9453 12.457 7.9102 16.34l20.223 26-27.613 22.113 5.3984 8.5234 40.113-19.605-9.4727-41.582 46.836-24.293 60.574-12.266 18.469-52.758-12.078 1.8477-22.164 31.113s-50.625 2.8906-51.336 2.793l-19.891-38.785-7.1953-54.082-10.656 1.375-2.4141 59.055 12.738 28.414-31.066 22.543-10.184-28.414-34.996-21.074-5.5391 7.3867 29.504 19.891z"/>
  <path d="m369.37 296.87c3.7422-0.23828 9.9453 12.457 7.9102 16.34l20.223 26-27.613 22.113 5.3984 8.5234 40.113-19.605-9.4727-41.582 46.836-24.293 60.574-12.266 18.469-52.758-12.078 1.8477-22.164 31.113s-50.625 2.8906-51.336 2.793l-19.891-38.785-7.1953-54.082-10.656 1.375-2.4141 59.055 12.738 28.414-31.066 22.543-10.184-28.414-34.996-21.074-5.5391 7.3867 29.504 19.891z"/>
  <path d="m369.37 296.87c3.7422-0.23828 9.9453 12.457 7.9102 16.34l20.223 26-27.613 22.113 5.3984 8.5234 40.113-19.605-9.4727-41.582 46.836-24.293 60.574-12.266 18.469-52.758-12.078 1.8477-22.164 31.113s-50.625 2.8906-51.336 2.793l-19.891-38.785-7.1953-54.082-10.656 1.375-2.4141 59.055 12.738 28.414-31.066 22.543-10.184-28.414-34.996-21.074-5.5391 7.3867 29.504 19.891z"/>
  <path d="m369.76 304.45c5.0508 10.629 0.52734 23.344-10.105 28.391-10.629 5.0508-23.344 0.52734-28.395-10.102-5.0508-10.633-0.52344-23.344 10.105-28.395 10.633-5.0508 23.344-0.52734 28.395 10.105"/>
  <path d="m403.14 362.5c92.16 64.266 86.523 82.641-47.027 7.7188-76.148-42.668-164.8-115.79-32.203-58.105-36.465-18.516-80.508-38.738-86.949-28.938-0.10156 0.24609-0.17969 0.5-0.23438 0.75781-0.30469 1.0508-0.30469 2.168 0 3.2188 0.47266 13.262 7.4336 54.129-16.859 103.81-42.34 85.957 86.57 222.39 79.324 195.92-28.84-105.32 80.508-137.67 186.83-153.82h0.47266c1.9062-0.09375 3.6562-1.0742 4.7344-2.6523 6.7266-11.789-88.086-67.91-88.086-67.91z"/>
 </g>
</svg>
